<?xml version="1.0" encoding="UTF-8" standalone="no"?>
<!-- Created with Inkscape (http://www.inkscape.org/) -->

<svg
   width="1544"
   height="500"
   viewBox="0 0 408.51666 132.29167"
   version="1.1"
   id="svg8"
   sodipodi:docname="banner.svg"
   inkscape:export-filename="banner-772x250.png"
   inkscape:export-xdpi="48"
   inkscape:export-ydpi="48"
   inkscape:version="1.4.3 (0d15f75, 2025-12-25)"
   xml:space="preserve"
   xmlns:inkscape="http://www.inkscape.org/namespaces/inkscape"
   xmlns:sodipodi="http://sodipodi.sourceforge.net/DTD/sodipodi-0.dtd"
   xmlns="http://www.w3.org/2000/svg"
   xmlns:svg="http://www.w3.org/2000/svg"
   xmlns:rdf="http://www.w3.org/1999/02/22-rdf-syntax-ns#"
   xmlns:cc="http://creativecommons.org/ns#"
   xmlns:dc="http://purl.org/dc/elements/1.1/"><defs
     id="defs2"><clipPath
       id="clipPath20"
       clipPathUnits="userSpaceOnUse"><path
         inkscape:connector-curvature="0"
         id="path22"
         d="m 0,595.28 841.89,0 L 841.89,0 0,0 0,595.28 Z" /></clipPath><clipPath
       id="clipPath92"
       clipPathUnits="userSpaceOnUse"><path
         inkscape:connector-curvature="0"
         id="path94"
         d="m 0,595.28 841.89,0 L 841.89,0 0,0 0,595.28 Z" /></clipPath><clipPath
       id="clipPath20-4"
       clipPathUnits="userSpaceOnUse"><path
         inkscape:connector-curvature="0"
         id="path22-7"
         d="m 0,595.28 841.89,0 L 841.89,0 0,0 0,595.28 z" /></clipPath><clipPath
       id="clipPath92-4"
       clipPathUnits="userSpaceOnUse"><path
         inkscape:connector-curvature="0"
         id="path94-0"
         d="m 0,595.28 841.89,0 L 841.89,0 0,0 0,595.28 z" /></clipPath></defs><sodipodi:namedview
     id="base"
     pagecolor="#000000"
     bordercolor="#666666"
     borderopacity="1.0"
     inkscape:pageopacity="1"
     inkscape:pageshadow="2"
     inkscape:zoom="0.7"
     inkscape:cx="660"
     inkscape:cy="176.42857"
     inkscape:document-units="mm"
     inkscape:current-layer="layer1"
     showgrid="false"
     units="px"
     inkscape:window-width="2133"
     inkscape:window-height="1309"
     inkscape:window-x="8"
     inkscape:window-y="16"
     inkscape:window-maximized="0"
     inkscape:pagecheckerboard="true"
     borderlayer="true"
     inkscape:showpageshadow="0"
     inkscape:deskcolor="#505050" /><metadata
     id="metadata5"><rdf:RDF><cc:Work
         rdf:about=""><dc:format>image/svg+xml</dc:format><dc:type
           rdf:resource="http://purl.org/dc/dcmitype/StillImage" /></cc:Work></rdf:RDF></metadata><rect
     style="fill:#ec643a;fill-opacity:1;stroke-width:0.487659;-inkscape-stroke:none"
     id="rect1"
     width="408.51666"
     height="132.29167"
     x="-4.4408921e-16"
     y="164.70831"
     transform="translate(0,-164.70832)" /><g
     inkscape:label="Ebene 1"
     inkscape:groupmode="layer"
     id="layer1"
     transform="translate(0,-164.70832)"><path
       d="m 672.72427,329.72433 q 0,0.816 -0.048,1.536 -0.024,0.696 -0.072,1.104 h 0.12 q 0.552,-0.816 1.512,-1.368 0.96,-0.552 2.472,-0.552 2.4,0 3.84,1.68 1.464,1.656 1.464,4.968 0,3.312 -1.464,4.992 -1.464,1.68 -3.84,1.68 -1.512,0 -2.472,-0.552 -0.96,-0.552 -1.512,-1.32 h -0.168 l -0.432,1.632 h -1.512 v -18.24 h 2.112 z m 3.624,2.472 q -2.04,0 -2.832,1.176 -0.792,1.176 -0.792,3.648 v 0.096 q 0,2.376 0.768,3.648 0.792,1.248 2.904,1.248 1.728,0 2.568,-1.272 0.864,-1.272 0.864,-3.672 0,-4.872 -3.48,-4.872 z m 6.52798,-1.536 h 2.256 l 2.784,7.32 q 0.36,0.96 0.648,1.848 0.288,0.864 0.432,1.656 h 0.096 q 0.144,-0.6 0.456,-1.56 0.312,-0.984 0.648,-1.968 l 2.616,-7.296 h 2.28 l -5.544,14.64 q -0.672,1.824 -1.752,2.904 -1.056,1.08 -2.928,1.08 -0.576,0 -1.008,-0.072 -0.432,-0.048 -0.744,-0.12 v -1.68 q 0.264,0.048 0.624,0.096 0.384,0.048 0.792,0.048 1.104,0 1.776,-0.624 0.696,-0.624 1.08,-1.656 l 0.672,-1.704 z m 34.60801,-0.24 q 2.184,0 3.264,1.128 1.08,1.104 1.08,3.6 v 8.376 h -2.088 v -8.28 q 0,-3.048 -2.616,-3.048 -1.872,0 -2.688,1.08 -0.792,1.08 -0.792,3.144 v 7.104 h -2.088 v -8.28 q 0,-3.048 -2.64,-3.048 -1.944,0 -2.688,1.2 -0.744,1.2 -0.744,3.456 v 6.672 h -2.112 v -12.864 h 1.704 l 0.312,1.752 h 0.12 q 0.6,-1.008 1.608,-1.488 1.032,-0.504 2.184,-0.504 3.024,0 3.936,2.16 h 0.12 q 0.648,-1.104 1.752,-1.632 1.128,-0.528 2.376,-0.528 z m 13.29599,0 q 1.656,0 2.832,0.72 1.2,0.72 1.824,2.04 0.648,1.296 0.648,3.048 v 1.272 h -8.808 q 0.048,2.184 1.104,3.336 1.08,1.128 3,1.128 1.224,0 2.16,-0.216 0.96,-0.24 1.968,-0.672 v 1.848 q -0.984,0.432 -1.944,0.624 -0.96,0.216 -2.28,0.216 -1.824,0 -3.24,-0.744 -1.392,-0.744 -2.184,-2.208 -0.768,-1.488 -0.768,-3.624 0,-2.112 0.696,-3.624 0.72,-1.512 1.992,-2.328 1.296,-0.816 3,-0.816 z m -0.024,1.728 q -1.512,0 -2.4,0.984 -0.864,0.96 -1.032,2.688 h 6.552 q -0.024,-1.632 -0.768,-2.64 -0.744,-1.032 -2.352,-1.032 z m 9.67198,-6.312 q 0.48,0 0.84,0.336 0.384,0.312 0.384,1.008 0,0.672 -0.384,1.008 -0.36,0.336 -0.84,0.336 -0.528,0 -0.888,-0.336 -0.36,-0.336 -0.36,-1.008 0,-0.696 0.36,-1.008 0.36,-0.336 0.888,-0.336 z m 1.032,4.824 v 12.864 h -2.112 v -12.864 z m 10.27198,-0.24 q 2.304,0 3.48,1.128 1.176,1.104 1.176,3.6 v 8.376 h -2.088 v -8.232 q 0,-3.096 -2.88,-3.096 -2.136,0 -2.952,1.2 -0.816,1.2 -0.816,3.456 v 6.672 h -2.112 v -12.864 h 1.704 l 0.312,1.752 h 0.12 q 0.624,-1.008 1.728,-1.488 1.104,-0.504 2.328,-0.504 z m 13.608,0 q 1.656,0 2.832,0.72 1.2,0.72 1.824,2.04 0.648,1.296 0.648,3.048 v 1.272 h -8.808 q 0.048,2.184 1.104,3.336 1.08,1.128 3,1.128 1.224,0 2.16,-0.216 0.96,-0.24 1.968,-0.672 v 1.848 q -0.984,0.432 -1.944,0.624 -0.96,0.216 -2.28,0.216 -1.824,0 -3.24,-0.744 -1.392,-0.744 -2.184,-2.208 -0.768,-1.488 -0.768,-3.624 0,-2.112 0.696,-3.624 0.72,-1.512 1.992,-2.328 1.296,-0.816 3,-0.816 z m -0.024,1.728 q -1.512,0 -2.4,0.984 -0.864,0.96 -1.032,2.688 h 6.552 q -0.024,-1.632 -0.768,-2.64 -0.744,-1.032 -2.352,-1.032 z m 7.51198,5.88 v -1.872 h 5.808 v 1.872 z m 9.88802,-12.192 q 0.48,0 0.84,0.336 0.384,0.312 0.384,1.008 0,0.672 -0.384,1.008 -0.36,0.336 -0.84,0.336 -0.528,0 -0.888,-0.336 -0.36,-0.336 -0.36,-1.008 0,-0.696 0.36,-1.008 0.36,-0.336 0.888,-0.336 z m 1.032,4.824 v 12.864 h -2.112 v -12.864 z m 10.27198,-0.24 q 2.304,0 3.48,1.128 1.176,1.104 1.176,3.6 v 8.376 h -2.088 v -8.232 q 0,-3.096 -2.88,-3.096 -2.136,0 -2.952,1.2 -0.816,1.2 -0.816,3.456 v 6.672 h -2.112 v -12.864 h 1.704 l 0.312,1.752 h 0.12 q 0.624,-1.008 1.728,-1.488 1.104,-0.504 2.328,-0.504 z m 14.568,1.872 h -3.24 v 11.232 h -2.112 v -11.232 h -2.256 v -0.984 l 2.256,-0.72 v -0.744 q 0,-2.496 1.104,-3.576 1.104,-1.104 3.072,-1.104 0.768,0 1.392,0.144 0.648,0.12 1.104,0.288 l -0.552,1.656 q -0.384,-0.12 -0.888,-0.24 -0.504,-0.12 -1.032,-0.12 -1.056,0 -1.584,0.72 -0.504,0.696 -0.504,2.208 v 0.84 h 3.24 z m 13.512,4.776 q 0,3.192 -1.632,4.944 -1.608,1.752 -4.368,1.752 -1.704,0 -3.048,-0.768 -1.32,-0.792 -2.088,-2.28 -0.768,-1.512 -0.768,-3.648 0,-3.192 1.608,-4.92 1.608,-1.728 4.368,-1.728 1.752,0 3.072,0.792 1.344,0.768 2.088,2.256 0.768,1.464 0.768,3.6 z m -9.72,0 q 0,2.28 0.888,3.624 0.912,1.32 2.88,1.32 1.944,0 2.856,-1.32 0.912,-1.344 0.912,-3.624 0,-2.28 -0.912,-3.576 -0.912,-1.296 -2.88,-1.296 -1.968,0 -2.856,1.296 -0.888,1.296 -0.888,3.576 z m 21.43199,2.904 q 0,1.872 -1.392,2.832 -1.392,0.96 -3.744,0.96 -1.344,0 -2.328,-0.216 -0.96,-0.216 -1.704,-0.6 v -1.92 q 0.768,0.384 1.848,0.72 1.104,0.312 2.232,0.312 1.608,0 2.328,-0.504 0.72,-0.528 0.72,-1.392 0,-0.48 -0.264,-0.864 -0.264,-0.384 -0.96,-0.768 -0.672,-0.384 -1.944,-0.864 -1.248,-0.48 -2.136,-0.96 -0.888,-0.48 -1.368,-1.152 -0.48,-0.672 -0.48,-1.728 0,-1.632 1.32,-2.52 1.344,-0.888 3.504,-0.888 1.176,0 2.184,0.24 1.032,0.216 1.92,0.624 l -0.72,1.68 q -0.816,-0.336 -1.704,-0.576 -0.888,-0.24 -1.824,-0.24 -1.296,0 -1.992,0.432 -0.672,0.408 -0.672,1.128 0,0.528 0.312,0.912 0.312,0.36 1.032,0.72 0.744,0.336 1.968,0.816 1.224,0.456 2.088,0.936 0.864,0.48 1.32,1.176 0.456,0.672 0.456,1.704 z m 8.088,-9.552 q 1.656,0 2.832,0.72 1.2,0.72 1.824,2.04 0.648,1.296 0.648,3.048 v 1.272 h -8.808 q 0.048,2.184 1.104,3.336 1.08,1.128 3,1.128 1.224,0 2.16,-0.216 0.96,-0.24 1.968,-0.672 v 1.848 q -0.984,0.432 -1.944,0.624 -0.96,0.216 -2.28,0.216 -1.824,0 -3.24,-0.744 -1.392,-0.744 -2.184,-2.208 -0.768,-1.488 -0.768,-3.624 0,-2.112 0.696,-3.624 0.72,-1.512 1.992,-2.328 1.296,-0.816 3,-0.816 z m -0.024,1.728 q -1.512,0 -2.4,0.984 -0.864,0.96 -1.032,2.688 h 6.552 q -0.024,-1.632 -0.768,-2.64 -0.744,-1.032 -2.352,-1.032 z m 9.67198,-6.312 q 0.48,0 0.84,0.336 0.384,0.312 0.384,1.008 0,0.672 -0.384,1.008 -0.36,0.336 -0.84,0.336 -0.528,0 -0.888,-0.336 -0.36,-0.336 -0.36,-1.008 0,-0.696 0.36,-1.008 0.36,-0.336 0.888,-0.336 z m 1.032,4.824 v 12.864 h -2.112 v -12.864 z m 8.37599,11.376 q 0.48,0 0.984,-0.072 0.504,-0.096 0.816,-0.192 v 1.608 q -0.336,0.168 -0.96,0.264 -0.624,0.12 -1.2,0.12 -1.008,0 -1.872,-0.336 -0.84,-0.36 -1.368,-1.224 -0.528,-0.864 -0.528,-2.424 v -7.488 h -1.824 v -1.008 l 1.848,-0.84 0.84,-2.736 h 1.248 v 2.952 h 3.72 v 1.632 h -3.72 v 7.44 q 0,1.176 0.552,1.752 0.576,0.552 1.464,0.552 z m 9.336,-11.616 q 1.656,0 2.832,0.72 1.2,0.72 1.824,2.04 0.648,1.296 0.648,3.048 v 1.272 h -8.808 q 0.048,2.184 1.104,3.336 1.08,1.128 3,1.128 1.224,0 2.16,-0.216 0.96,-0.24 1.968,-0.672 v 1.848 q -0.984,0.432 -1.944,0.624 -0.96,0.216 -2.28,0.216 -1.824,0 -3.24,-0.744 -1.392,-0.744 -2.184,-2.208 -0.768,-1.488 -0.768,-3.624 0,-2.112 0.696,-3.624 0.72,-1.512 1.992,-2.328 1.296,-0.816 3,-0.816 z m -0.024,1.728 q -1.512,0 -2.4,0.984 -0.864,0.96 -1.032,2.688 h 6.552 q -0.024,-1.632 -0.768,-2.64 -0.744,-1.032 -2.352,-1.032 z m 8.27998,10.08 q 0,-0.888 0.432,-1.248 0.432,-0.36 1.032,-0.36 0.624,0 1.056,0.36 0.456,0.36 0.456,1.248 0,0.864 -0.456,1.248 -0.432,0.384 -1.056,0.384 -0.6,0 -1.032,-0.384 -0.432,-0.384 -0.432,-1.248 z m 11.30399,1.536 q -2.4,0 -3.84,-1.656 -1.44,-1.68 -1.44,-4.992 0,-3.312 1.44,-4.992 1.464,-1.704 3.864,-1.704 1.488,0 2.424,0.552 0.96,0.552 1.56,1.344 h 0.144 q -0.024,-0.312 -0.096,-0.912 -0.048,-0.624 -0.048,-0.984 v -5.136 h 2.112 v 18.24 h -1.704 l -0.312,-1.728 h -0.096 q -0.576,0.816 -1.536,1.392 -0.96,0.576 -2.472,0.576 z m 0.336,-1.752 q 2.04,0 2.856,-1.104 0.84,-1.128 0.84,-3.384 v -0.384 q 0,-2.4 -0.792,-3.672 -0.792,-1.296 -2.928,-1.296 -1.704,0 -2.568,1.368 -0.84,1.344 -0.84,3.624 0,2.304 0.84,3.576 0.864,1.272 2.592,1.272 z m 14.832,-11.592 q 1.656,0 2.832,0.72 1.2,0.72 1.824,2.04 0.648,1.296 0.648,3.048 v 1.272 h -8.808 q 0.048,2.184 1.104,3.336 1.08,1.128 3,1.128 1.224,0 2.16,-0.216 0.96,-0.24 1.968,-0.672 v 1.848 q -0.984,0.432 -1.944,0.624 -0.96,0.216 -2.28,0.216 -1.824,0 -3.24,-0.744 -1.392,-0.744 -2.184,-2.208 -0.768,-1.488 -0.768,-3.624 0,-2.112 0.696,-3.624 0.72,-1.512 1.992,-2.328 1.296,-0.816 3,-0.816 z m -0.024,1.728 q -1.512,0 -2.4,0.984 -0.864,0.96 -1.032,2.688 h 6.552 q -0.024,-1.632 -0.768,-2.64 -0.744,-1.032 -2.352,-1.032 z"
       id="flowRoot959"
       style="font-size:24px;line-height:47.6598px;font-family:Raleway;-inkscape-font-specification:Raleway;letter-spacing:0px;word-spacing:0px;fill:#ffffff;stroke-width:1px"
       transform="matrix(0.26458333,0,0,0.26458333,146.95717,200.69166)"
       aria-label="by meine-infoseite.de" /><path
       d="m 108.0665,127.41232 h -3.84 v -27.09336 h -9.514677 v -3.370665 h 22.826687 v 3.370665 h -9.47201 z m 17.32267,-22.91202 q 0,1.70667 -0.21333,3.2 h 0.256 q 1.10933,-1.74933 2.98666,-2.64533 1.92001,-0.896 4.13867,-0.896 4.18134,0 6.27201,2.00533 2.09067,1.96267 2.09067,6.35734 v 14.89068 h -3.71201 v -14.63468 q 0,-5.504 -5.12,-5.504 -3.84,0 -5.29067,2.176 -1.408,2.13333 -1.408,6.144 v 11.81868 H 121.6345 V 94.985627 h 3.75467 z m 24.53335,-8.533339 q 0.85334,0 1.49334,0.597334 0.68266,0.554667 0.68266,1.792001 0,1.194668 -0.68266,1.792004 -0.64,0.59733 -1.49334,0.59733 -0.93867,0 -1.57867,-0.59733 -0.64,-0.597336 -0.64,-1.792004 0,-1.237334 0.64,-1.792001 0.64,-0.597334 1.57867,-0.597334 z m 1.83467,8.576009 v 22.86935 h -3.75467 v -22.86935 z m 22.14399,16.55468 q 0,3.328 -2.47467,5.03467 -2.47467,1.70666 -6.656,1.70666 -2.38934,0 -4.13867,-0.384 -1.70667,-0.384 -3.02934,-1.06666 v -3.41334 q 1.36534,0.68267 3.28534,1.28 1.96267,0.55467 3.968,0.55467 2.85867,0 4.13867,-0.896 1.28,-0.93867 1.28,-2.47467 0,-0.85333 -0.46933,-1.536 -0.46933,-0.68267 -1.70667,-1.36534 -1.19467,-0.68266 -3.456,-1.536 -2.21867,-0.85333 -3.79734,-1.70666 -1.57867,-0.85334 -2.432,-2.04801 -0.85333,-1.19466 -0.85333,-3.072 0,-2.90133 2.34666,-4.48 2.38934,-1.57867 6.22934,-1.57867 2.09067,0 3.88267,0.42667 1.83467,0.384 3.41334,1.10933 l -1.28,2.98667 q -1.45067,-0.59733 -3.02934,-1.024 -1.57867,-0.42667 -3.24267,-0.42667 -2.304,0 -3.54133,0.768 -1.19467,0.72534 -1.19467,2.00534 0,0.93867 0.55467,1.62133 0.55466,0.64 1.83466,1.28 1.32267,0.59734 3.49867,1.45067 2.17601,0.81067 3.71201,1.664 1.536,0.85334 2.34666,2.09067 0.81067,1.19467 0.81067,3.02934 z m 27.52003,-16.98135 q 4.22401,0 6.78401,2.944 2.60267,2.94401 2.60267,8.87468 0,5.84533 -2.60267,8.87467 -2.56,3.02933 -6.82667,3.02933 -2.64534,0 -4.39467,-0.98133 -1.70667,-1.024 -2.68801,-2.34667 h -0.256 q 0.0853,0.72534 0.17067,1.83467 0.0853,1.10933 0.0853,1.92 v 9.38668 h -3.75467 v -33.10936 h 3.07201 l 0.512,3.11467 h 0.17066 q 1.02401,-1.49334 2.68801,-2.51734 1.664,-1.024 4.43733,-1.024 z m -0.68266,3.15734 q -3.49867,0 -4.94934,1.96266 -1.408,1.96267 -1.49334,5.97334 v 0.72534 q 0,4.224 1.36534,6.528 1.408,2.26134 5.16267,2.26134 2.09067,0 3.41334,-1.152 1.36533,-1.15201 2.00533,-3.11467 0.68267,-2.00534 0.68267,-4.56534 0,-3.92534 -1.536,-6.27201 -1.49334,-2.34666 -4.65067,-2.34666 z m 19.79734,20.13868 h -3.75467 V 94.985627 h 3.75467 z m 26.368,-22.86935 v 22.86935 h -3.07201 l -0.55466,-3.02934 h -0.17067 q -1.10933,1.792 -3.072,2.64534 -1.96267,0.81066 -4.18134,0.81066 -4.13867,0 -6.22934,-1.96266 -2.09066,-2.00534 -2.09066,-6.35734 v -14.97601 h 3.79733 v 14.72001 q 0,5.46134 5.07734,5.46134 3.79734,0 5.248,-2.13334 1.49334,-2.13333 1.49334,-6.144 v -11.90401 z m 15.36,-0.42667 q 2.26134,0 4.05334,0.85333 1.83466,0.85334 3.11467,2.60267 h 0.21333 l 0.512,-3.02933 h 2.98667 v 23.25335 q 0,4.90667 -2.51734,7.38134 -2.47467,2.47467 -7.72267,2.47467 -5.03467,0 -8.23467,-1.45067 v -3.456 q 3.37067,1.792 8.448,1.792 2.94401,0 4.60801,-1.74934 1.70667,-1.70667 1.70667,-4.69333 v -0.89601 q 0,-0.512 0.0427,-1.45066 0.0427,-0.98134 0.0853,-1.36534 h -0.17067 q -2.304,3.456 -7.08267,3.456 -4.43734,0 -6.95467,-3.11466 -2.47467,-3.11467 -2.47467,-8.70401 0,-5.46134 2.47467,-8.66134 2.51733,-3.24267 6.912,-3.24267 z m 0.512,3.15734 q -2.85867,0 -4.43734,2.304 -1.57866,2.26133 -1.57866,6.48534 0,4.224 1.536,6.48533 1.57867,2.21867 4.56533,2.21867 3.45601,0 5.03467,-1.83467 1.57867,-1.87733 1.57867,-6.016 v -0.896 q 0,-4.69334 -1.62133,-6.69867 -1.62134,-2.048 -5.07734,-2.048 z m 19.54135,-11.306679 q 0.85333,0 1.49333,0.597334 0.68267,0.554667 0.68267,1.792001 0,1.194668 -0.68267,1.792004 -0.64,0.59733 -1.49333,0.59733 -0.93867,0 -1.57867,-0.59733 -0.64,-0.597336 -0.64,-1.792004 0,-1.237334 0.64,-1.792001 0.64,-0.597334 1.57867,-0.597334 z m 1.83467,8.576009 v 22.86935 h -3.75467 v -22.86935 z m 18.26132,-0.42667 q 4.096,0 6.18667,2.00534 2.09067,1.96266 2.09067,6.4 v 14.89068 h -3.71201 v -14.63468 q 0,-5.504 -5.12,-5.504 -3.79734,0 -5.248,2.13333 -1.45067,2.13334 -1.45067,6.14401 v 11.86134 h -3.75467 v -22.86935 h 3.02933 l 0.55467,3.11467 h 0.21333 q 1.10934,-1.792 3.07201,-2.64534 1.96267,-0.896 4.13867,-0.896 z m 34.56003,23.72268 q -4.26667,0 -6.82668,-2.944 -2.56,-2.98667 -2.56,-8.87467 0,-5.888 2.56,-8.87467 2.60267,-3.02934 6.86934,-3.02934 2.64534,0 4.30934,0.98133 1.70667,0.98134 2.77333,2.38934 h 0.256 q -0.0427,-0.55467 -0.17066,-1.62133 -0.0853,-1.10934 -0.0853,-1.74934 v -9.130673 h 3.75467 v 32.426693 h -3.02933 l -0.55467,-3.072 h -0.17067 q -1.024,1.45066 -2.73066,2.47466 -1.70667,1.024 -4.39467,1.024 z m 0.59733,-3.11466 q 3.62667,0 5.07734,-1.96267 1.49333,-2.00534 1.49333,-6.01601 v -0.68266 q 0,-4.26667 -1.408,-6.52801 -1.408,-2.304 -5.20534,-2.304 -3.02933,0 -4.56533,2.432 -1.49334,2.38934 -1.49334,6.44267 0,4.09601 1.49334,6.35734 1.536,2.26134 4.608,2.26134 z m 28.20267,-20.60802 q 0.64,0 1.36534,0.0853 0.768,0.0427 1.32267,0.17067 l -0.46934,3.456 q -0.55467,-0.128 -1.23733,-0.21333 -0.64,-0.0853 -1.23734,-0.0853 -1.74933,0 -3.28533,0.98133 -1.536,0.93867 -2.47467,2.688 -0.896,1.70667 -0.896,4.01067 v 12.20268 h -3.75467 v -22.86935 h 3.072 l 0.42667,4.18133 h 0.17066 q 1.10934,-1.87733 2.85867,-3.24267 1.74934,-1.36533 4.13867,-1.36533 z m 14.76267,0.0427 q 4.18134,0 6.18668,1.83467 2.00533,1.83466 2.00533,5.84533 v 15.57335 h -2.73067 l -0.72533,-3.24267 h -0.17067 q -1.49333,1.87733 -3.15733,2.77333 -1.62134,0.896 -4.52268,0.896 -3.11466,0 -5.16267,-1.62133 -2.048,-1.664 -2.048,-5.16267 0,-3.41334 2.688,-5.248 2.68801,-1.87734 8.27734,-2.04801 l 3.88267,-0.128 v -1.36533 q 0,-2.85867 -1.23733,-3.968 -1.23733,-1.10934 -3.49867,-1.10934 -1.792,0 -3.41334,0.55467 -1.62133,0.512 -3.02933,1.19467 l -1.152,-2.816 q 1.49333,-0.81067 3.54133,-1.36534 2.04801,-0.59733 4.26667,-0.59733 z m 1.10934,12.20267 q -4.26667,0.17067 -5.93067,1.36534 -1.62134,1.19466 -1.62134,3.37067 0,1.92 1.152,2.816 1.19467,0.896 3.02934,0.896 2.90133,0 4.82134,-1.57867 1.92,-1.62133 1.92,-4.94934 v -2.048 z m 28.92807,-1.87733 q -0.55467,-1.74934 -0.98134,-3.41334 -0.384,-1.70667 -0.59733,-2.64533 H 408.824 q -0.17066,0.93866 -0.55466,2.64533 -0.384,1.664 -0.98134,3.45601 l -4.096,12.84267 h -4.26667 l -6.27201,-22.86935 h 3.88267 l 3.15734,12.20268 q 0.46933,1.83466 0.896,3.712 0.42667,1.87733 0.59733,3.11467 h 0.17067 q 0.17067,-0.72534 0.384,-1.792 0.256,-1.06667 0.55467,-2.21867 0.29866,-1.19467 0.59733,-2.13334 l 4.05334,-12.88534 h 4.096 l 3.92534,12.88534 q 0.46933,1.45067 0.896,3.15734 0.46933,1.70667 0.64,2.944 h 0.17067 q 0.128,-1.06667 0.55466,-2.944 0.46934,-1.87734 0.98134,-3.84 l 3.2,-12.20268 h 3.84 l -6.35734,22.86935 h -4.39467 z m 33.66398,6.61334 q 0,3.328 -2.47467,5.03467 -2.47467,1.70666 -6.65601,1.70666 -2.38933,0 -4.13867,-0.384 -1.70666,-0.384 -3.02933,-1.06666 v -3.41334 q 1.36533,0.68267 3.28533,1.28 1.96267,0.55467 3.96801,0.55467 2.85867,0 4.13867,-0.896 1.28,-0.93867 1.28,-2.47467 0,-0.85333 -0.46934,-1.536 -0.46933,-0.68267 -1.70666,-1.36534 -1.19467,-0.68266 -3.45601,-1.536 -2.21866,-0.85333 -3.79733,-1.70666 -1.57867,-0.85334 -2.432,-2.04801 -0.85334,-1.19466 -0.85334,-3.072 0,-2.90133 2.34667,-4.48 2.38934,-1.57867 6.22934,-1.57867 2.09067,0 3.88267,0.42667 1.83467,0.384 3.41333,1.10933 l -1.28,2.98667 q -1.45066,-0.59733 -3.02933,-1.024 -1.57867,-0.42667 -3.24267,-0.42667 -2.304,0 -3.54134,0.768 -1.19467,0.72534 -1.19467,2.00534 0,0.93867 0.55467,1.62133 0.55467,0.64 1.83467,1.28 1.32267,0.59734 3.49867,1.45067 2.176,0.81067 3.712,1.664 1.536,0.85334 2.34667,2.09067 0.81067,1.19467 0.81067,3.02934 z m 25.30136,-16.93868 q 4.18134,0 6.18667,1.83467 2.00534,1.83466 2.00534,5.84533 v 15.57335 h -2.73067 l -0.72534,-3.24267 h -0.17066 q -1.49334,1.87733 -3.15734,2.77333 -1.62133,0.896 -4.52267,0.896 -3.11467,0 -5.16267,-1.62133 -2.048,-1.664 -2.048,-5.16267 0,-3.41334 2.688,-5.248 2.688,-1.87734 8.27734,-2.04801 l 3.88267,-0.128 v -1.36533 q 0,-2.85867 -1.23733,-3.968 -1.23734,-1.10934 -3.49867,-1.10934 -1.792,0 -3.41334,0.55467 -1.62133,0.512 -3.02933,1.19467 l -1.15201,-2.816 q 1.49334,-0.81067 3.54134,-1.36534 2.048,-0.59733 4.26667,-0.59733 z m 1.10933,12.20267 q -4.26667,0.17067 -5.93067,1.36534 -1.62133,1.19466 -1.62133,3.37067 0,1.92 1.152,2.816 1.19467,0.896 3.02934,0.896 2.90133,0 4.82133,-1.57867 1.92,-1.62133 1.92,-4.94934 v -2.048 z m 40.14943,4.73601 q 0,3.328 -2.47467,5.03467 -2.47467,1.70666 -6.65601,1.70666 -2.38933,0 -4.13867,-0.384 -1.70666,-0.384 -3.02933,-1.06666 v -3.41334 q 1.36533,0.68267 3.28533,1.28 1.96267,0.55467 3.96801,0.55467 2.85867,0 4.13867,-0.896 1.28,-0.93867 1.28,-2.47467 0,-0.85333 -0.46934,-1.536 -0.46933,-0.68267 -1.70666,-1.36534 -1.19467,-0.68266 -3.45601,-1.536 -2.21866,-0.85333 -3.79733,-1.70666 -1.57867,-0.85334 -2.432,-2.04801 -0.85334,-1.19466 -0.85334,-3.072 0,-2.90133 2.34667,-4.48 2.38934,-1.57867 6.22934,-1.57867 2.09067,0 3.88267,0.42667 1.83467,0.384 3.41333,1.10933 l -1.28,2.98667 q -1.45066,-0.59733 -3.02933,-1.024 -1.57867,-0.42667 -3.24267,-0.42667 -2.304,0 -3.54134,0.768 -1.19467,0.72534 -1.19467,2.00534 0,0.93867 0.55467,1.62133 0.55467,0.64 1.83467,1.28 1.32267,0.59734 3.49867,1.45067 2.176,0.81067 3.712,1.664 1.536,0.85334 2.34667,2.09067 0.81067,1.19467 0.81067,3.02934 z m 24.66135,-16.55468 v 22.86935 h -3.072 l -0.55467,-3.02934 h -0.17067 q -1.10933,1.792 -3.072,2.64534 -1.96267,0.81066 -4.18134,0.81066 -4.13867,0 -6.22933,-1.96266 -2.09067,-2.00534 -2.09067,-6.35734 v -14.97601 h 3.79733 v 14.72001 q 0,5.46134 5.07734,5.46134 3.79734,0 5.248,-2.13334 1.49334,-2.13333 1.49334,-6.144 v -11.90401 z m 11.008,-1.664 q 0,1.45066 -0.0853,2.73067 -0.0427,1.23733 -0.128,1.96266 h 0.21334 q 0.98133,-1.45066 2.688,-2.432 1.70667,-0.98133 4.39467,-0.98133 4.26667,0 6.82667,2.98667 2.60267,2.944 2.60267,8.832 0,5.88801 -2.60267,8.87468 -2.60267,2.98666 -6.82667,2.98666 -2.688,0 -4.39467,-0.98133 -1.70667,-0.98133 -2.688,-2.34667 h -0.29867 l -0.768,2.90134 h -2.688 V 94.985627 h 3.75467 z m 6.44267,4.39467 q -3.62667,0 -5.03467,2.09066 -1.408,2.09067 -1.408,6.48534 v 0.17067 q 0,4.224 1.36533,6.48534 1.408,2.21867 5.16267,2.21867 3.07201,0 4.56534,-2.26134 1.536,-2.26133 1.536,-6.528 0,-8.66134 -6.18667,-8.66134 z m 23.68002,17.49334 q 0.85333,0 1.74933,-0.128 0.896,-0.17066 1.45067,-0.34133 v 2.85867 q -0.59733,0.29866 -1.70667,0.46933 -1.10933,0.21333 -2.13333,0.21333 -1.792,0 -3.328,-0.59733 -1.49334,-0.64 -2.43201,-2.176 -0.93866,-1.536 -0.93866,-4.30934 V 107.4443 h -3.24267 v -1.792 l 3.28533,-1.49333 1.49334,-4.864006 h 2.21867 v 5.248006 h 6.61333 v 2.90133 h -6.61333 v 13.22668 q 0,2.09067 0.98133,3.11467 1.024,0.98133 2.60267,0.98133 z m 11.52001,2.64534 h -3.75467 V 94.985627 h 3.75467 z m 16.0853,-23.29602 q 2.944,0 5.03467,1.28 2.13334,1.28 3.24267,3.62667 1.152,2.304 1.152,5.41867 v 2.26134 h -15.65868 q 0.0853,3.88267 1.96267,5.93067 1.92,2.00533 5.33334,2.00533 2.176,0 3.84,-0.384 1.70667,-0.42666 3.49867,-1.19467 v 3.28534 q -1.74933,0.768 -3.456,1.10933 -1.70667,0.384 -4.05334,0.384 -3.24267,0 -5.76,-1.32266 -2.47467,-1.32267 -3.88267,-3.92534 -1.36534,-2.64533 -1.36534,-6.44267 0,-3.75467 1.23734,-6.44267 1.28,-2.688 3.54133,-4.13867 2.304,-1.45067 5.33334,-1.45067 z m -0.0427,3.072 q -2.688,0 -4.26667,1.74934 -1.536,1.70667 -1.83466,4.77867 h 11.648 q -0.0427,-2.90134 -1.36533,-4.69334 -1.32267,-1.83467 -4.18134,-1.83467 z m 46.25066,8.74668 q 0,5.67467 -2.90133,8.78934 -2.85867,3.11466 -7.76534,3.11466 -3.02934,0 -5.41867,-1.36533 -2.34667,-1.408 -3.712,-4.05334 -1.36534,-2.688 -1.36534,-6.48533 0,-5.67467 2.85867,-8.74668 2.85867,-3.072 7.76534,-3.072 3.11467,0 5.46134,1.408 2.38933,1.36534 3.712,4.01067 1.36533,2.60267 1.36533,6.40001 z m -17.28001,0 q 0,4.05333 1.57867,6.44267 1.62133,2.34667 5.12,2.34667 3.456,0 5.07734,-2.34667 1.62133,-2.38934 1.62133,-6.44267 0,-4.05334 -1.62133,-6.35734 -1.62134,-2.304 -5.12,-2.304 -3.49867,0 -5.07734,2.304 -1.57867,2.304 -1.57867,6.35734 z m 42.32537,-11.39201 v 22.86935 h -3.072 l -0.55467,-3.02934 h -0.17067 q -1.10933,1.792 -3.072,2.64534 -1.96267,0.81066 -4.18134,0.81066 -4.13867,0 -6.22934,-1.96266 -2.09066,-2.00534 -2.09066,-6.35734 v -14.97601 h 3.79733 v 14.72001 q 0,5.46134 5.07734,5.46134 3.79734,0 5.248,-2.13334 1.49334,-2.13333 1.49334,-6.144 v -11.90401 z m 14.8907,20.22401 q 0.85333,0 1.74933,-0.128 0.896,-0.17066 1.45067,-0.34133 v 2.85867 q -0.59733,0.29866 -1.70667,0.46933 -1.10933,0.21333 -2.13333,0.21333 -1.792,0 -3.32801,-0.59733 -1.49333,-0.64 -2.432,-2.176 -0.93866,-1.536 -0.93866,-4.30934 V 107.4443 h -3.24267 v -1.792 l 3.28533,-1.49333 1.49334,-4.864006 h 2.21866 v 5.248006 h 6.61334 v 2.90133 h -6.61334 v 13.22668 q 0,2.09067 0.98134,3.11467 1.024,0.98133 2.60267,0.98133 z m 11.51998,2.64534 h -3.75467 V 94.985627 h 3.75467 z m 9.17332,-31.445359 q 0.85334,0 1.49334,0.597334 0.68267,0.554667 0.68267,1.792001 0,1.194668 -0.68267,1.792004 -0.64,0.59733 -1.49334,0.59733 -0.93866,0 -1.57866,-0.59733 -0.64,-0.597336 -0.64,-1.792004 0,-1.237334 0.64,-1.792001 0.64,-0.597334 1.57866,-0.597334 z m 1.83467,8.576009 v 22.86935 h -3.75467 v -22.86935 z m 18.26134,-0.42667 q 4.096,0 6.18667,2.00534 2.09067,1.96266 2.09067,6.4 v 14.89068 h -3.71201 v -14.63468 q 0,-5.504 -5.12,-5.504 -3.79734,0 -5.248,2.13333 -1.45067,2.13334 -1.45067,6.14401 v 11.86134 h -3.75467 v -22.86935 h 3.02933 l 0.55467,3.11467 h 0.21333 q 1.10934,-1.792 3.07201,-2.64534 1.96267,-0.896 4.13867,-0.896 z m 24.19204,0 q 2.944,0 5.03467,1.28 2.13333,1.28 3.24267,3.62667 1.152,2.304 1.152,5.41867 v 2.26134 h -15.65868 q 0.0853,3.88267 1.96267,5.93067 1.92,2.00533 5.33333,2.00533 2.17601,0 3.84001,-0.384 1.70667,-0.42666 3.49867,-1.19467 v 3.28534 q -1.74934,0.768 -3.45601,1.10933 -1.70666,0.384 -4.05333,0.384 -3.24267,0 -5.76001,-1.32266 -2.47466,-1.32267 -3.88267,-3.92534 -1.36533,-2.64533 -1.36533,-6.44267 0,-3.75467 1.23733,-6.44267 1.28,-2.688 3.54134,-4.13867 2.304,-1.45067 5.33334,-1.45067 z m -0.0427,3.072 q -2.688,0 -4.26667,1.74934 -1.536,1.70667 -1.83467,4.77867 h 11.64801 q -0.0427,-2.90134 -1.36533,-4.69334 -1.32267,-1.83467 -4.18134,-1.83467 z m 35.02929,-3.02933 q 4.18133,0 6.18667,1.83467 2.00533,1.83466 2.00533,5.84533 v 15.57335 h -2.73066 l -0.72534,-3.24267 h -0.17067 q -1.49333,1.87733 -3.15733,2.77333 -1.62134,0.896 -4.52267,0.896 -3.11467,0 -5.16267,-1.62133 -2.048,-1.664 -2.048,-5.16267 0,-3.41334 2.688,-5.248 2.688,-1.87734 8.27734,-2.04801 l 3.88267,-0.128 v -1.36533 q 0,-2.85867 -1.23734,-3.968 -1.23733,-1.10934 -3.49867,-1.10934 -1.792,0 -3.41333,0.55467 -1.62134,0.512 -3.02934,1.19467 l -1.152,-2.816 q 1.49334,-0.81067 3.54134,-1.36534 2.048,-0.59733 4.26667,-0.59733 z m 1.10933,12.20267 q -4.26667,0.17067 -5.93067,1.36534 -1.62133,1.19466 -1.62133,3.37067 0,1.92 1.152,2.816 1.19466,0.896 3.02933,0.896 2.90134,0 4.82134,-1.57867 1.92,-1.62133 1.92,-4.94934 v -2.048 z m 24.8321,-12.24534 q 0.64,0 1.36533,0.0853 0.768,0.0427 1.32267,0.17067 l -0.46933,3.456 q -0.55467,-0.128 -1.23734,-0.21333 -0.64,-0.0853 -1.23733,-0.0853 -1.74934,0 -3.28534,0.98133 -1.536,0.93867 -2.47467,2.688 -0.896,1.70667 -0.896,4.01067 v 12.20268 h -3.75467 v -22.86935 h 3.07201 l 0.42666,4.18133 h 0.17067 q 1.10933,-1.87733 2.85867,-3.24267 1.74933,-1.36533 4.13867,-1.36533 z m 25.98395,11.81868 q 0,5.67467 -2.90134,8.78934 -2.85866,3.11466 -7.76533,3.11466 -3.02934,0 -5.41868,-1.36533 -2.34666,-1.408 -3.712,-4.05334 -1.36533,-2.688 -1.36533,-6.48533 0,-5.67467 2.85867,-8.74668 2.85867,-3.072 7.76534,-3.072 3.11466,0 5.46133,1.408 2.38934,1.36534 3.71201,4.01067 1.36533,2.60267 1.36533,6.40001 z m -17.28001,0 q 0,4.05333 1.57867,6.44267 1.62133,2.34667 5.12,2.34667 3.456,0 5.07734,-2.34667 1.62133,-2.38934 1.62133,-6.44267 0,-4.05334 -1.62133,-6.35734 -1.62134,-2.304 -5.12001,-2.304 -3.49867,0 -5.07733,2.304 -1.57867,2.304 -1.57867,6.35734 z m 42.32536,-11.39201 v 22.86935 h -3.072 l -0.55467,-3.02934 h -0.17066 q -1.10934,1.792 -3.072,2.64534 -1.96267,0.81066 -4.18134,0.81066 -4.13867,0 -6.22934,-1.96266 -2.09067,-2.00534 -2.09067,-6.35734 v -14.97601 h 3.79734 v 14.72001 q 0,5.46134 5.07734,5.46134 3.79733,0 5.248,-2.13334 1.49333,-2.13333 1.49333,-6.144 v -11.90401 z m 18.26137,-0.42667 q 4.09601,0 6.18667,2.00534 2.09067,1.96266 2.09067,6.4 v 14.89068 h -3.712 v -14.63468 q 0,-5.504 -5.12,-5.504 -3.79734,0 -5.24801,2.13333 -1.45067,2.13334 -1.45067,6.14401 v 11.86134 h -3.75466 v -22.86935 h 3.02933 l 0.55467,3.11467 h 0.21333 q 1.10934,-1.792 3.072,-2.64534 1.96267,-0.896 4.13867,-0.896 z m 23.46665,23.72268 q -4.26667,0 -6.82667,-2.944 -2.56,-2.98667 -2.56,-8.87467 0,-5.888 2.56,-8.87467 2.60267,-3.02934 6.86934,-3.02934 2.64533,0 4.30933,0.98133 1.70667,0.98134 2.77334,2.38934 h 0.256 q -0.0427,-0.55467 -0.17067,-1.62133 -0.0853,-1.10934 -0.0853,-1.74934 v -9.130673 h 3.75467 v 32.426693 h -3.02934 l -0.55467,-3.072 h -0.17066 q -1.024,1.45066 -2.73067,2.47466 -1.70667,1.024 -4.39467,1.024 z m 0.59733,-3.11466 q 3.62667,0 5.07734,-1.96267 1.49333,-2.00534 1.49333,-6.01601 v -0.68266 q 0,-4.26667 -1.408,-6.52801 -1.408,-2.304 -5.20533,-2.304 -3.02934,0 -4.56534,2.432 -1.49334,2.38934 -1.49334,6.44267 0,4.09601 1.49334,6.35734 1.536,2.26134 4.608,2.26134 z m 32.38404,-21.84535 q 0,1.45066 -0.0853,2.73067 -0.0427,1.23733 -0.128,1.96266 h 0.21333 q 0.98133,-1.45066 2.688,-2.432 1.70667,-0.98133 4.39467,-0.98133 4.26667,0 6.82667,2.98667 2.60267,2.944 2.60267,8.832 0,5.88801 -2.60267,8.87468 -2.60267,2.98666 -6.82667,2.98666 -2.688,0 -4.39467,-0.98133 -1.70667,-0.98133 -2.688,-2.34667 h -0.29867 l -0.768,2.90134 h -2.688 V 94.985627 h 3.75467 z m 6.44267,4.39467 q -3.62667,0 -5.03467,2.09066 -1.408,2.09067 -1.408,6.48534 v 0.17067 q 0,4.224 1.36533,6.48534 1.40801,2.21867 5.16267,2.21867 3.07201,0 4.56534,-2.26134 1.536,-2.26133 1.536,-6.528 0,-8.66134 -6.18667,-8.66134 z m 19.79732,20.13868 h -3.75467 V 94.985627 h 3.75467 z m 27.13601,-11.47734 q 0,5.67467 -2.90134,8.78934 -2.85867,3.11466 -7.76534,3.11466 -3.02933,0 -5.41867,-1.36533 -2.34667,-1.408 -3.712,-4.05334 -1.36533,-2.688 -1.36533,-6.48533 0,-5.67467 2.85866,-8.74668 2.85867,-3.072 7.76534,-3.072 3.11467,0 5.46134,1.408 2.38934,1.36534 3.712,4.01067 1.36534,2.60267 1.36534,6.40001 z m -17.28002,0 q 0,4.05333 1.57867,6.44267 1.62134,2.34667 5.12001,2.34667 3.456,0 5.07733,-2.34667 1.62134,-2.38934 1.62134,-6.44267 0,-4.05334 -1.62134,-6.35734 -1.62133,-2.304 -5.12,-2.304 -3.49867,0 -5.07734,2.304 -1.57867,2.304 -1.57867,6.35734 z m 32.38399,11.904 q -3.0293,0 -5.4186,-1.23733 -2.3467,-1.23733 -3.712,-3.84 -1.3227,-2.60267 -1.3227,-6.65601 0,-4.224 1.408,-6.86934 1.408,-2.64533 3.7973,-3.88267 2.432,-1.23733 5.504,-1.23733 1.7494,0 3.3707,0.384 1.6213,0.34133 2.6453,0.85333 l -1.152,3.11467 q -1.024,-0.384 -2.3893,-0.72533 -1.3653,-0.34133 -2.56,-0.34133 -6.7413,0 -6.7413,8.66134 0,4.13867 1.6213,6.35733 1.664,2.17601 4.9067,2.17601 1.8773,0 3.2853,-0.384 1.4507,-0.384 2.6453,-0.93867 v 3.328 q -1.152,0.59733 -2.56,0.896 -1.3653,0.34133 -3.328,0.34133 z m 15.0187,-15.91467 q 0,0.68266 -0.085,1.792 -0.043,1.10933 -0.085,1.92 h 0.1707 q 0.256,-0.34133 0.768,-0.98133 0.512,-0.64001 1.024,-1.28001 0.5547,-0.68266 0.9387,-1.10933 l 7.296,-7.72267 h 4.3946 l -9.2586,9.77067 9.8986,13.09868 h -4.5226 l -7.936,-10.66668 -2.6027,2.26134 v 8.40534 h -3.712 V 94.985627 h 3.712 z m -918.74177,39.8518 q 2.944,0 5.03467,1.28 2.13334,1.28 3.24267,3.62667 1.152,2.304 1.152,5.41867 v 2.26133 h -15.65868 q 0.0853,3.88267 1.96267,5.93067 1.92,2.00534 5.33334,2.00534 2.176,0 3.84,-0.384 1.70667,-0.42667 3.49867,-1.19467 v 3.28534 q -1.74933,0.768 -3.456,1.10933 -1.70667,0.384 -4.05334,0.384 -3.24267,0 -5.76,-1.32267 -2.47467,-1.32267 -3.882671,-3.92533 -1.365334,-2.64534 -1.365334,-6.44268 0,-3.75466 1.237334,-6.44267 1.280001,-2.688 3.541331,-4.13867 2.30401,-1.45066 5.33334,-1.45066 z m -0.0427,3.072 q -2.68801,0 -4.26667,1.74933 -1.53601,1.70667 -1.83467,4.77867 h 11.64801 q -0.0427,-2.90133 -1.36534,-4.69333 -1.32267,-1.83467 -4.18133,-1.83467 z m 23.38131,20.65068 q -4.26667,0 -6.82667,-2.944 -2.56,-2.98667 -2.56,-8.87468 0,-5.888 2.56,-8.87467 2.60267,-3.02933 6.86934,-3.02933 2.64533,0 4.30933,0.98133 1.70667,0.98133 2.77334,2.38934 h 0.256 q -0.0427,-0.55467 -0.17067,-1.62134 -0.0853,-1.10933 -0.0853,-1.74933 v -9.13068 h 3.75467 v 32.42669 h -3.02934 l -0.55466,-3.072 h -0.17067 q -1.024,1.45067 -2.73067,2.47467 -1.70667,1.024 -4.39467,1.024 z m 0.59733,-3.11467 q 3.62667,0 5.07734,-1.96267 1.49334,-2.00533 1.49334,-6.016 v -0.68267 q 0,-4.26667 -1.40801,-6.528 -1.408,-2.30401 -5.20533,-2.30401 -3.02934,0 -4.56534,2.43201 -1.49333,2.38933 -1.49333,6.44267 0,4.096 1.49333,6.35734 1.536,2.26133 4.608,2.26133 z m 19.45601,-28.75735 q 0.85333,0 1.49333,0.59733 0.68267,0.55467 0.68267,1.792 0,1.19467 -0.68267,1.792 -0.64,0.59734 -1.49333,0.59734 -0.93867,0 -1.57867,-0.59734 -0.64,-0.59733 -0.64,-1.792 0,-1.23733 0.64,-1.792 0.64,-0.59733 1.57867,-0.59733 z m 1.83467,8.576 v 22.86935 h -3.75467 v -22.86935 z m 14.89065,20.22402 q 0.85333,0 1.74933,-0.128 0.896,-0.17067 1.45067,-0.34134 v 2.85867 q -0.59733,0.29867 -1.70667,0.46934 -1.10933,0.21333 -2.13333,0.21333 -1.792,0 -3.328,-0.59733 -1.49334,-0.64 -2.43201,-2.17601 -0.93866,-1.536 -0.93866,-4.30933 v -13.31201 h -3.24267 v -1.792 l 3.28533,-1.49334 1.49334,-4.864 h 2.21867 v 5.248 h 6.61333 v 2.90134 h -6.61333 v 13.22667 q 0,2.09067 0.98133,3.11467 1.024,0.98134 2.60267,0.98134 z m 27.64802,-8.83201 q 0,5.67467 -2.90134,8.78934 -2.85866,3.11467 -7.76533,3.11467 -3.02934,0 -5.41868,-1.36533 -2.34666,-1.40801 -3.712,-4.05334 -1.36533,-2.688 -1.36533,-6.48534 0,-5.67467 2.85867,-8.74667 2.85867,-3.072 7.76534,-3.072 3.11466,0 5.46133,1.408 2.38934,1.36533 3.71201,4.01067 1.36533,2.60267 1.36533,6.4 z m -17.28001,0 q 0,4.05334 1.57867,6.44267 1.62133,2.34667 5.12,2.34667 3.456,0 5.07734,-2.34667 1.62133,-2.38933 1.62133,-6.44267 0,-4.05333 -1.62133,-6.35734 -1.62134,-2.304 -5.12001,-2.304 -3.49867,0 -5.07733,2.304 -1.57867,2.30401 -1.57867,6.35734 z m 33.87733,-11.81867 q 0.64001,0 1.36534,0.0853 0.768,0.0427 1.32267,0.17067 l -0.46934,3.456 q -0.55466,-0.128 -1.23733,-0.21333 -0.64,-0.0853 -1.23734,-0.0853 -1.74933,0 -3.28533,0.98134 -1.536,0.93866 -2.47467,2.688 -0.896,1.70667 -0.896,4.01067 v 12.20267 h -3.75467 v -22.86935 h 3.072 l 0.42667,4.18134 h 0.17067 q 1.10933,-1.87734 2.85867,-3.24267 1.74933,-1.36533 4.13866,-1.36533 z m 21.80271,-1.23734 q 0,1.45067 -0.0853,2.73067 -0.0427,1.23733 -0.128,1.96267 h 0.21334 q 0.98133,-1.45067 2.688,-2.432 1.70667,-0.98134 4.39467,-0.98134 4.26667,0 6.82667,2.98667 2.60267,2.944 2.60267,8.83201 0,5.888 -2.60267,8.87467 -2.60267,2.98667 -6.82667,2.98667 -2.688,0 -4.39467,-0.98133 -1.70667,-0.98134 -2.688,-2.34667 h -0.29867 l -0.768,2.90133 h -2.688 v -32.42669 h 3.75467 z m 6.44267,4.39467 q -3.62667,0 -5.03467,2.09067 -1.408,2.09067 -1.408,6.48534 v 0.17066 q 0,4.22401 1.36533,6.48534 1.408,2.21867 5.16267,2.21867 3.072,0 4.56534,-2.26133 1.536,-2.26134 1.536,-6.52801 0,-8.66134 -6.18667,-8.66134 z m 19.79733,20.13868 h -3.75467 v -32.42669 h 3.75467 z m 27.13599,-11.47734 q 0,5.67467 -2.90133,8.78934 -2.85867,3.11467 -7.76534,3.11467 -3.02934,0 -5.41867,-1.36533 -2.34667,-1.40801 -3.712,-4.05334 -1.36534,-2.688 -1.36534,-6.48534 0,-5.67467 2.85867,-8.74667 2.85867,-3.072 7.76534,-3.072 3.11467,0 5.46134,1.408 2.38933,1.36533 3.712,4.01067 1.36533,2.60267 1.36533,6.4 z m -17.28001,0 q 0,4.05334 1.57867,6.44267 1.62133,2.34667 5.12,2.34667 3.45601,0 5.07734,-2.34667 1.62133,-2.38933 1.62133,-6.44267 0,-4.05333 -1.62133,-6.35734 -1.62133,-2.304 -5.12,-2.304 -3.49867,0 -5.07734,2.304 -1.57867,2.30401 -1.57867,6.35734 z m 32.38401,11.90401 q -3.02933,0 -5.41867,-1.23733 -2.34667,-1.23734 -3.712,-3.84001 -1.32267,-2.60267 -1.32267,-6.656 0,-4.224 1.408,-6.86934 1.408,-2.64534 3.79734,-3.88267 2.432,-1.23733 5.504,-1.23733 1.74934,0 3.37067,0.384 1.62134,0.34133 2.64534,0.85333 l -1.152,3.11467 q -1.02401,-0.384 -2.38934,-0.72533 -1.36533,-0.34134 -2.56,-0.34134 -6.74134,0 -6.74134,8.66134 0,4.13867 1.62133,6.35734 1.66401,2.176 4.90668,2.176 1.87733,0 3.28533,-0.384 1.45067,-0.384 2.64534,-0.93867 v 3.32801 q -1.152,0.59733 -2.56001,0.896 -1.36533,0.34133 -3.328,0.34133 z m 15.01866,-15.91468 q 0,0.68267 -0.0853,1.792 -0.0427,1.10934 -0.0853,1.92 h 0.17067 q 0.256,-0.34133 0.768,-0.98133 0.512,-0.64 1.024,-1.28 0.55467,-0.68267 0.93867,-1.10933 l 7.296,-7.72268 h 4.39467 l -9.25867,9.77068 9.89867,13.09867 h -4.52267 l -7.936,-10.66667 -2.60267,2.26133 v 8.40534 h -3.712 v -32.42669 h 3.712 z m 33.96272,9.17334 q 0,3.328 -2.47467,5.03467 -2.47467,1.70667 -6.65601,1.70667 -2.38933,0 -4.13867,-0.384 -1.70666,-0.384 -3.02933,-1.06667 v -3.41333 q 1.36533,0.68266 3.28533,1.28 1.96267,0.55466 3.96801,0.55466 2.85867,0 4.13867,-0.896 1.28,-0.93866 1.28,-2.47466 0,-0.85334 -0.46934,-1.53601 -0.46933,-0.68266 -1.70666,-1.36533 -1.19467,-0.68267 -3.45601,-1.536 -2.21866,-0.85334 -3.79733,-1.70667 -1.57867,-0.85333 -2.432,-2.048 -0.85334,-1.19467 -0.85334,-3.072 0,-2.90134 2.34667,-4.48001 2.38934,-1.57866 6.22934,-1.57866 2.09067,0 3.88267,0.42666 1.83467,0.384 3.41333,1.10934 l -1.28,2.98667 q -1.45066,-0.59734 -3.02933,-1.024 -1.57867,-0.42667 -3.24267,-0.42667 -2.304,0 -3.54134,0.768 -1.19467,0.72533 -1.19467,2.00533 0,0.93867 0.55467,1.62134 0.55467,0.64 1.83467,1.28 1.32267,0.59733 3.49867,1.45067 2.176,0.81066 3.712,1.664 1.536,0.85333 2.34667,2.09067 0.81067,1.19466 0.81067,3.02933 z m 14.72002,-5.376 q 0,-5.20534 1.49333,-10.02668 1.536,-4.864 4.77867,-8.74667 h 3.54134 q -2.98667,4.01067 -4.52267,8.83201 -1.49333,4.82133 -1.49333,9.89867 0,4.94934 1.49333,9.72801 1.536,4.736 4.48,8.74667 h -3.49867 q -3.24267,-3.75467 -4.77867,-8.49067 -1.49333,-4.77867 -1.49333,-9.94134 z m 25.25866,-8.27734 h -5.76 v 19.96801 h -3.75467 v -19.96801 h -4.01067 v -1.74934 l 4.01067,-1.28 v -1.32266 q 0,-4.43734 1.96267,-6.35734 1.96267,-1.96267 5.46133,-1.96267 1.36534,0 2.47467,0.256 1.152,0.21333 1.96267,0.512 l -0.98133,2.944 q -0.68267,-0.21333 -1.57867,-0.42667 -0.896,-0.21333 -1.83467,-0.21333 -1.87733,0 -2.816,1.28 -0.896,1.23734 -0.896,3.92534 v 1.49333 h 5.76 z m 6.05867,-11.47734 q 0.85334,0 1.49334,0.59733 0.68267,0.55467 0.68267,1.792 0,1.19467 -0.68267,1.792 -0.64,0.59734 -1.49334,0.59734 -0.93866,0 -1.57866,-0.59734 -0.64,-0.59733 -0.64,-1.792 0,-1.23733 0.64,-1.792 0.64,-0.59733 1.57866,-0.59733 z m 1.83467,8.576 v 22.86935 h -3.75467 v -22.86935 z m 17.91997,-0.42666 q 0.64,0 1.36533,0.0853 0.768,0.0427 1.32267,0.17067 l -0.46934,3.456 q -0.55466,-0.128 -1.23733,-0.21333 -0.64,-0.0853 -1.23733,-0.0853 -1.74934,0 -3.28534,0.98134 -1.536,0.93866 -2.47467,2.688 -0.896,1.70667 -0.896,4.01067 v 12.20267 h -3.75467 v -22.86935 h 3.072 l 0.42667,4.18134 h 0.17067 q 1.10933,-1.87734 2.85867,-3.24267 1.74933,-1.36533 4.13867,-1.36533 z m 21.84537,16.98134 q 0,3.328 -2.47467,5.03467 -2.47467,1.70667 -6.65601,1.70667 -2.38933,0 -4.13867,-0.384 -1.70666,-0.384 -3.02933,-1.06667 v -3.41333 q 1.36533,0.68266 3.28533,1.28 1.96267,0.55466 3.96801,0.55466 2.85867,0 4.13867,-0.896 1.28,-0.93866 1.28,-2.47466 0,-0.85334 -0.46934,-1.53601 -0.46933,-0.68266 -1.70666,-1.36533 -1.19467,-0.68267 -3.45601,-1.536 -2.21866,-0.85334 -3.79733,-1.70667 -1.57867,-0.85333 -2.432,-2.048 -0.85334,-1.19467 -0.85334,-3.072 0,-2.90134 2.34667,-4.48001 2.38934,-1.57866 6.22934,-1.57866 2.09067,0 3.88267,0.42666 1.83467,0.384 3.41333,1.10934 l -1.28,2.98667 q -1.45067,-0.59734 -3.02933,-1.024 -1.57867,-0.42667 -3.24267,-0.42667 -2.304,0 -3.54134,0.768 -1.19467,0.72533 -1.19467,2.00533 0,0.93867 0.55467,1.62134 0.55467,0.64 1.83467,1.28 1.32267,0.59733 3.49867,1.45067 2.176,0.81066 3.712,1.664 1.536,0.85333 2.34667,2.09067 0.81067,1.19466 0.81067,3.02933 z m 13.18401,3.66934 q 0.85333,0 1.74933,-0.128 0.896,-0.17067 1.45067,-0.34134 v 2.85867 q -0.59734,0.29867 -1.70667,0.46934 -1.10933,0.21333 -2.13333,0.21333 -1.79201,0 -3.32801,-0.59733 -1.49333,-0.64 -2.432,-2.17601 -0.93867,-1.536 -0.93867,-4.30933 v -13.31201 h -3.24267 v -1.792 l 3.28534,-1.49334 1.49333,-4.864 h 2.21867 v 5.248 h 6.61334 v 2.90134 h -6.61334 v 13.22667 q 0,2.09067 0.98134,3.11467 1.024,0.98134 2.60267,0.98134 z m 29.39736,-17.32268 h -5.76 v 19.96801 h -3.75467 v -19.96801 h -4.01067 v -1.74934 l 4.01067,-1.28 v -1.32266 q 0,-4.43734 1.96267,-6.35734 1.96267,-1.96267 5.46134,-1.96267 1.36533,0 2.47466,0.256 1.15201,0.21333 1.96267,0.512 l -0.98133,2.944 q -0.68267,-0.21333 -1.57867,-0.42667 -0.896,-0.21333 -1.83467,-0.21333 -1.87733,0 -2.816,1.28 -0.896,1.23734 -0.896,3.92534 v 1.49333 h 5.76 z m 24.02135,8.49067 q 0,5.67467 -2.90134,8.78934 -2.85867,3.11467 -7.76534,3.11467 -3.02933,0 -5.41867,-1.36533 -2.34667,-1.40801 -3.712,-4.05334 -1.36533,-2.688 -1.36533,-6.48534 0,-5.67467 2.85867,-8.74667 2.85866,-3.072 7.76533,-3.072 3.11467,0 5.46134,1.408 2.38934,1.36533 3.712,4.01067 1.36534,2.60267 1.36534,6.4 z m -17.28001,0 q 0,4.05334 1.57866,6.44267 1.62134,2.34667 5.12001,2.34667 3.456,0 5.07733,-2.34667 1.62134,-2.38933 1.62134,-6.44267 0,-4.05333 -1.62134,-6.35734 -1.62133,-2.304 -5.12,-2.304 -3.49867,0 -5.07734,2.304 -1.57866,2.30401 -1.57866,6.35734 z m 42.32533,-11.39201 v 22.86935 h -3.072 l -0.55467,-3.02933 h -0.17066 q -1.10934,1.792 -3.07201,2.64533 -1.96266,0.81067 -4.18133,0.81067 -4.13867,0 -6.22934,-1.96267 -2.09067,-2.00533 -2.09067,-6.35734 v -14.97601 h 3.79734 v 14.72001 q 0,5.46134 5.07733,5.46134 3.79734,0 5.24801,-2.13333 1.49333,-2.13334 1.49333,-6.14401 v -11.90401 z m 17.92001,-0.42666 q 0.64,0 1.36533,0.0853 0.768,0.0427 1.32267,0.17067 l -0.46933,3.456 q -0.55467,-0.128 -1.23734,-0.21333 -0.64,-0.0853 -1.23733,-0.0853 -1.74934,0 -3.28534,0.98134 -1.536,0.93866 -2.47467,2.688 -0.896,1.70667 -0.896,4.01067 v 12.20267 h -3.75467 v -22.86935 h 3.072 l 0.42667,4.18134 h 0.17067 q 1.10933,-1.87734 2.85867,-3.24267 1.74933,-1.36533 4.13867,-1.36533 z m 21.80271,23.29601 h -3.75467 v -32.42669 h 3.75467 z m 15.91464,-23.25335 q 4.18134,0 6.18667,1.83467 2.00534,1.83467 2.00534,5.84534 v 15.57334 h -2.73067 l -0.72534,-3.24267 h -0.17066 q -1.49334,1.87734 -3.15734,2.77334 -1.62133,0.896 -4.52267,0.896 -3.11467,0 -5.16267,-1.62133 -2.048,-1.66401 -2.048,-5.16267 0,-3.41334 2.688,-5.24801 2.688,-1.87733 8.27734,-2.048 l 3.88267,-0.128 v -1.36533 q 0,-2.85867 -1.23734,-3.96801 -1.23733,-1.10933 -3.49866,-1.10933 -1.79201,0 -3.41334,0.55467 -1.62133,0.512 -3.02934,1.19466 l -1.152,-2.816 q 1.49334,-0.81067 3.54134,-1.36533 2.048,-0.59734 4.26667,-0.59734 z m 1.10933,12.20268 q -4.26667,0.17067 -5.93067,1.36533 -1.62133,1.19467 -1.62133,3.37067 0,1.92 1.152,2.816 1.19467,0.896 3.02933,0.896 2.90134,0 4.82134,-1.57866 1.92,-1.62134 1.92,-4.94934 v -2.048 z m 10.58139,-11.81868 h 4.01067 l 4.94934,13.01335 q 0.64,1.70666 1.152,3.28533 0.512,1.536 0.768,2.944 h 0.17067 q 0.256,-1.06666 0.81066,-2.77333 0.55467,-1.74934 1.15201,-3.49867 l 4.65067,-12.97068 h 4.05333 l -9.85601,26.02669 q -1.19466,3.24267 -3.11466,5.16267 -1.87734,1.92 -5.20534,1.92 -1.024,0 -1.792,-0.128 -0.768,-0.0853 -1.32267,-0.21333 v -2.98667 q 0.46933,0.0853 1.10933,0.17067 0.68267,0.0853 1.408,0.0853 1.96267,0 3.15734,-1.10934 1.23733,-1.10933 1.92,-2.944 l 1.19467,-3.02933 z m 34.17605,-0.42666 q 2.944,0 5.03467,1.28 2.13334,1.28 3.24267,3.62667 1.152,2.304 1.152,5.41867 v 2.26133 h -15.65868 q 0.0853,3.88267 1.96267,5.93067 1.92,2.00534 5.33334,2.00534 2.176,0 3.84,-0.384 1.70667,-0.42667 3.49867,-1.19467 v 3.28534 q -1.74933,0.768 -3.456,1.10933 -1.70667,0.384 -4.05334,0.384 -3.24267,0 -5.76,-1.32267 -2.47467,-1.32267 -3.88267,-3.92533 -1.36534,-2.64534 -1.36534,-6.44268 0,-3.75466 1.23734,-6.44267 1.28,-2.688 3.54133,-4.13867 2.30401,-1.45066 5.33334,-1.45066 z m -0.0427,3.072 q -2.68801,0 -4.26667,1.74933 -1.53601,1.70667 -1.83467,4.77867 h 11.64801 q -0.0427,-2.90133 -1.36534,-4.69333 -1.32267,-1.83467 -4.18133,-1.83467 z m 25.94129,-3.072 q 0.64001,0 1.36534,0.0853 0.768,0.0427 1.32267,0.17067 l -0.46934,3.456 q -0.55466,-0.128 -1.23733,-0.21333 -0.64,-0.0853 -1.23734,-0.0853 -1.74933,0 -3.28533,0.98134 -1.536,0.93866 -2.47467,2.688 -0.896,1.70667 -0.896,4.01067 v 12.20267 h -3.75467 v -22.86935 h 3.072 l 0.42667,4.18134 h 0.17067 q 1.10933,-1.87734 2.85867,-3.24267 1.74933,-1.36533 4.13866,-1.36533 z m 21.84535,16.98134 q 0,3.328 -2.47467,5.03467 -2.47467,1.70667 -6.65601,1.70667 -2.38933,0 -4.13867,-0.384 -1.70667,-0.384 -3.02933,-1.06667 v -3.41333 q 1.36533,0.68266 3.28533,1.28 1.96267,0.55466 3.96801,0.55466 2.85866,0 4.13867,-0.896 1.28,-0.93866 1.28,-2.47466 0,-0.85334 -0.46934,-1.53601 -0.46933,-0.68266 -1.70667,-1.36533 -1.19466,-0.68267 -3.456,-1.536 -2.21867,-0.85334 -3.79733,-1.70667 -1.57867,-0.85333 -2.43201,-2.048 -0.85333,-1.19467 -0.85333,-3.072 0,-2.90134 2.34667,-4.48001 2.38933,-1.57866 6.22934,-1.57866 2.09066,0 3.88267,0.42666 1.83466,0.384 3.41333,1.10934 l -1.28,2.98667 q -1.45067,-0.59734 -3.02933,-1.024 -1.57867,-0.42667 -3.24267,-0.42667 -2.30401,0 -3.54134,0.768 -1.19467,0.72533 -1.19467,2.00533 0,0.93867 0.55467,1.62134 0.55467,0.64 1.83467,1.28 1.32267,0.59733 3.49867,1.45067 2.176,0.81066 3.712,1.664 1.536,0.85333 2.34667,2.09067 0.81067,1.19466 0.81067,3.02933 z m 13.01337,-5.376 q 0,5.16267 -1.536,9.94134 -1.49334,4.736 -4.73601,8.49067 h -3.49867 q 2.94401,-4.01067 4.43734,-8.74667 1.536,-4.77867 1.536,-9.72801 0,-5.07734 -1.536,-9.89867 -1.49333,-4.82134 -4.48,-8.83201 h 3.54133 q 3.24267,3.88267 4.73601,8.74667 1.536,4.82134 1.536,10.02668 z m 25.08798,-11.56268 q 4.18133,0 6.18667,1.83467 2.00533,1.83467 2.00533,5.84534 v 15.57334 h -2.73067 l -0.72533,-3.24267 h -0.17067 q -1.49333,1.87734 -3.15733,2.77334 -1.62134,0.896 -4.52267,0.896 -3.11467,0 -5.16267,-1.62133 -2.048,-1.66401 -2.048,-5.16267 0,-3.41334 2.688,-5.24801 2.688,-1.87733 8.27734,-2.048 l 3.88267,-0.128 v -1.36533 q 0,-2.85867 -1.23734,-3.96801 -1.23733,-1.10933 -3.49867,-1.10933 -1.792,0 -3.41333,0.55467 -1.62134,0.512 -3.02934,1.19466 l -1.152,-2.816 q 1.49334,-0.81067 3.54134,-1.36533 2.048,-0.59734 4.26667,-0.59734 z m 1.10933,12.20268 q -4.26667,0.17067 -5.93067,1.36533 -1.62134,1.19467 -1.62134,3.37067 0,1.92 1.15201,2.816 1.19466,0.896 3.02933,0.896 2.90134,0 4.82134,-1.57866 1.92,-1.62134 1.92,-4.94934 v -2.048 z m 25.17337,-12.24534 q 4.096,0 6.18667,2.00533 2.09067,1.96267 2.09067,6.40001 v 14.89067 h -3.712 v -14.63467 q 0,-5.50401 -5.12001,-5.50401 -3.79733,0 -5.248,2.13334 -1.45067,2.13333 -1.45067,6.144 v 11.86134 h -3.75467 v -22.86935 h 3.02934 l 0.55466,3.11467 h 0.21334 q 1.10933,-1.792 3.072,-2.64533 1.96267,-0.896 4.13867,-0.896 z m 23.46671,23.72268 q -4.26667,0 -6.82668,-2.944 -2.56,-2.98667 -2.56,-8.87468 0,-5.888 2.56,-8.87467 2.60267,-3.02933 6.86934,-3.02933 2.64534,0 4.30934,0.98133 1.70667,0.98133 2.77334,2.38934 h 0.256 q -0.0427,-0.55467 -0.17067,-1.62134 -0.0853,-1.10933 -0.0853,-1.74933 v -9.13068 h 3.75466 v 32.42669 h -3.02933 l -0.55467,-3.072 h -0.17066 q -1.02401,1.45067 -2.73067,2.47467 -1.70667,1.024 -4.39467,1.024 z m 0.59733,-3.11467 q 3.62667,0 5.07734,-1.96267 1.49333,-2.00533 1.49333,-6.016 v -0.68267 q 0,-4.26667 -1.408,-6.528 -1.408,-2.30401 -5.20534,-2.30401 -3.02933,0 -4.56533,2.43201 -1.49334,2.38933 -1.49334,6.44267 0,4.096 1.49334,6.35734 1.536,2.26133 4.608,2.26133 z m 43.52005,-3.62667 q 0,3.328 -2.47467,5.03467 -2.47467,1.70667 -6.65601,1.70667 -2.38933,0 -4.13867,-0.384 -1.70667,-0.384 -3.02933,-1.06667 v -3.41333 q 1.36533,0.68266 3.28533,1.28 1.96267,0.55466 3.96801,0.55466 2.85866,0 4.13867,-0.896 1.28,-0.93866 1.28,-2.47466 0,-0.85334 -0.46934,-1.53601 -0.46933,-0.68266 -1.70667,-1.36533 -1.19466,-0.68267 -3.456,-1.536 -2.21867,-0.85334 -3.79733,-1.70667 -1.57867,-0.85333 -2.43201,-2.048 -0.85333,-1.19467 -0.85333,-3.072 0,-2.90134 2.34667,-4.48001 2.38933,-1.57866 6.22934,-1.57866 2.09066,0 3.88267,0.42666 1.83466,0.384 3.41333,1.10934 l -1.28,2.98667 q -1.45067,-0.59734 -3.02933,-1.024 -1.57867,-0.42667 -3.24267,-0.42667 -2.30401,0 -3.54134,0.768 -1.19467,0.72533 -1.19467,2.00533 0,0.93867 0.55467,1.62134 0.55467,0.64 1.83467,1.28 1.32267,0.59733 3.49867,1.45067 2.176,0.81066 3.712,1.664 1.536,0.85333 2.34667,2.09067 0.81067,1.19466 0.81067,3.02933 z m 14.37864,-16.98134 q 2.944,0 5.03467,1.28 2.13334,1.28 3.24267,3.62667 1.152,2.304 1.152,5.41867 v 2.26133 h -15.65868 q 0.0853,3.88267 1.96267,5.93067 1.92,2.00534 5.33334,2.00534 2.176,0 3.84,-0.384 1.70667,-0.42667 3.49867,-1.19467 v 3.28534 q -1.74933,0.768 -3.456,1.10933 -1.70667,0.384 -4.05334,0.384 -3.24267,0 -5.76,-1.32267 -2.47467,-1.32267 -3.88267,-3.92533 -1.36534,-2.64534 -1.36534,-6.44268 0,-3.75466 1.23734,-6.44267 1.28,-2.688 3.54133,-4.13867 2.30401,-1.45066 5.33334,-1.45066 z m -0.0427,3.072 q -2.688,0 -4.26667,1.74933 -1.536,1.70667 -1.83466,4.77867 h 11.64801 q -0.0427,-2.90133 -1.36534,-4.69333 -1.32267,-1.83467 -4.18134,-1.83467 z m 26.1547,-3.072 q 4.224,0 6.784,2.944 2.60267,2.944 2.60267,8.87467 0,5.84534 -2.60267,8.87467 -2.56,3.02934 -6.82667,3.02934 -2.64533,0 -4.39467,-0.98133 -1.70667,-1.024 -2.688,-2.34667 h -0.256 q 0.0853,0.72533 0.17067,1.83467 0.0853,1.10933 0.0853,1.92 v 9.38667 h -3.75467 v -33.10936 h 3.072 l 0.512,3.11467 h 0.17067 q 1.024,-1.49333 2.688,-2.51733 1.664,-1.024 4.43734,-1.024 z m -0.68267,3.15733 q -3.49867,0 -4.94934,1.96267 -1.408,1.96267 -1.49333,5.97334 v 0.72533 q 0,4.224 1.36533,6.52801 1.40801,2.26133 5.16267,2.26133 2.09067,0 3.41334,-1.152 1.36534,-1.152 2.00534,-3.11467 0.68266,-2.00533 0.68266,-4.56534 0,-3.92533 -1.536,-6.272 -1.49333,-2.34667 -4.65067,-2.34667 z m 24.70399,-3.11467 q 4.18134,0 6.18667,1.83467 2.00534,1.83467 2.00534,5.84534 v 15.57334 h -2.73067 l -0.72534,-3.24267 h -0.17066 q -1.49334,1.87734 -3.15734,2.77334 -1.62133,0.896 -4.52267,0.896 -3.11467,0 -5.16267,-1.62133 -2.048,-1.66401 -2.048,-5.16267 0,-3.41334 2.688,-5.24801 2.688,-1.87733 8.27734,-2.048 l 3.88267,-0.128 v -1.36533 q 0,-2.85867 -1.23733,-3.96801 -1.23734,-1.10933 -3.49867,-1.10933 -1.792,0 -3.41334,0.55467 -1.62133,0.512 -3.02933,1.19466 l -1.15201,-2.816 q 1.49334,-0.81067 3.54134,-1.36533 2.048,-0.59734 4.26667,-0.59734 z m 1.10933,12.20268 q -4.26667,0.17067 -5.93067,1.36533 -1.62133,1.19467 -1.62133,3.37067 0,1.92 1.152,2.816 1.19467,0.896 3.02934,0.896 2.90133,0 4.82133,-1.57866 1.92,-1.62134 1.92,-4.94934 v -2.048 z m 24.83204,-12.24534 q 0.64,0 1.36533,0.0853 0.76801,0.0427 1.32267,0.17067 l -0.46933,3.456 q -0.55467,-0.128 -1.23734,-0.21333 -0.64,-0.0853 -1.23733,-0.0853 -1.74933,0 -3.28534,0.98134 -1.536,0.93866 -2.47466,2.688 -0.896,1.70667 -0.896,4.01067 v 12.20267 h -3.75467 v -22.86935 h 3.072 l 0.42667,4.18134 h 0.17066 q 1.10934,-1.87734 2.85867,-3.24267 1.74934,-1.36533 4.13867,-1.36533 z m 14.76267,0.0427 q 4.18134,0 6.18667,1.83467 2.00534,1.83467 2.00534,5.84534 v 15.57334 h -2.73067 l -0.72534,-3.24267 h -0.17066 q -1.49334,1.87734 -3.15734,2.77334 -1.62133,0.896 -4.52267,0.896 -3.11467,0 -5.16267,-1.62133 -2.048,-1.66401 -2.048,-5.16267 0,-3.41334 2.688,-5.24801 2.688,-1.87733 8.27734,-2.048 l 3.88267,-0.128 v -1.36533 q 0,-2.85867 -1.23733,-3.96801 -1.23734,-1.10933 -3.49867,-1.10933 -1.792,0 -3.41334,0.55467 -1.62133,0.512 -3.02933,1.19466 l -1.152,-2.816 q 1.49333,-0.81067 3.54133,-1.36533 2.048,-0.59734 4.26667,-0.59734 z m 1.10934,12.20268 q -4.26667,0.17067 -5.93068,1.36533 -1.62133,1.19467 -1.62133,3.37067 0,1.92 1.152,2.816 1.19467,0.896 3.02934,0.896 2.90133,0 4.82133,-1.57866 1.92,-1.62134 1.92,-4.94934 v -2.048 z m 21.80276,8.40534 q 0.85333,0 1.74933,-0.128 0.896,-0.17067 1.45067,-0.34134 v 2.85867 q -0.59733,0.29867 -1.70667,0.46934 -1.10933,0.21333 -2.13333,0.21333 -1.79201,0 -3.32801,-0.59733 -1.49333,-0.64 -2.432,-2.17601 -0.93867,-1.536 -0.93867,-4.30933 V 155.10411 H 928.419 v -1.792 l 3.28533,-1.49334 1.49334,-4.864 h 2.21866 v 5.248 h 6.61334 v 2.90134 h -6.61334 v 13.22667 q 0,2.09067 0.98134,3.11467 1.024,0.98134 2.60267,0.98134 z m 16.59731,-20.65068 q 2.94401,0 5.03467,1.28 2.13334,1.28 3.24267,3.62667 1.152,2.304 1.152,5.41867 v 2.26133 h -15.65867 q 0.0853,3.88267 1.96266,5.93067 1.92,2.00534 5.33334,2.00534 2.176,0 3.84,-0.384 1.70667,-0.42667 3.49867,-1.19467 v 3.28534 q -1.74933,0.768 -3.456,1.10933 -1.70667,0.384 -4.05334,0.384 -3.24267,0 -5.76,-1.32267 -2.47467,-1.32267 -3.88267,-3.92533 -1.36533,-2.64534 -1.36533,-6.44268 0,-3.75466 1.23733,-6.44267 1.28,-2.688 3.54134,-4.13867 2.304,-1.45066 5.33333,-1.45066 z m -0.0427,3.072 q -2.68801,0 -4.26667,1.74933 -1.536,1.70667 -1.83467,4.77867 h 11.64801 q -0.0427,-2.90133 -1.36534,-4.69333 -1.32266,-1.83467 -4.18133,-1.83467 z m 30.1653,13.90934 q 0,3.328 -2.47467,5.03467 -2.47467,1.70667 -6.656,1.70667 -2.38934,0 -4.13867,-0.384 -1.70667,-0.384 -3.02934,-1.06667 v -3.41333 q 1.36533,0.68266 3.28534,1.28 1.96266,0.55466 3.968,0.55466 2.85867,0 4.13867,-0.896 1.28,-0.93866 1.28,-2.47466 0,-0.85334 -0.46933,-1.53601 -0.46934,-0.68266 -1.70667,-1.36533 -1.19467,-0.68267 -3.456,-1.536 -2.21867,-0.85334 -3.79734,-1.70667 -1.57867,-0.85333 -2.432,-2.048 -0.85334,-1.19467 -0.85334,-3.072 0,-2.90134 2.34667,-4.48001 2.38934,-1.57866 6.22934,-1.57866 2.09067,0 3.88267,0.42666 1.83467,0.384 3.41334,1.10934 l -1.28001,2.98667 q -1.45066,-0.59734 -3.02933,-1.024 -1.57867,-0.42667 -3.24267,-0.42667 -2.304,0 -3.54134,0.768 -1.19466,0.72533 -1.19466,2.00533 0,0.93867 0.55466,1.62134 0.55467,0.64 1.83467,1.28 1.32267,0.59733 3.49867,1.45067 2.176,0.81066 3.712,1.664 1.536,0.85333 2.34667,2.09067 0.81067,1.19466 0.81067,3.02933 z m 24.27741,3.66934 q 0.8533,0 1.7493,-0.128 0.896,-0.17067 1.4507,-0.34134 v 2.85867 q -0.5974,0.29867 -1.7067,0.46934 -1.1093,0.21333 -2.1333,0.21333 -1.7921,0 -3.3281,-0.59733 -1.4933,-0.64 -2.432,-2.17601 -0.9386,-1.536 -0.9386,-4.30933 v -13.31201 h -3.24269 v -1.792 l 3.28529,-1.49334 1.4934,-4.864 h 2.2186 v 5.248 h 6.6134 v 2.90134 h -6.6134 v 13.22667 q 0,2.09067 0.9814,3.11467 1.024,0.98134 2.6027,0.98134 z m 11.52,-20.26668 q 0,1.70666 -0.2133,3.2 h 0.256 q 1.1093,-1.74934 2.9866,-2.64534 1.92,-0.896 4.1387,-0.896 4.1813,0 6.272,2.00534 2.0907,1.96267 2.0907,6.35734 v 14.89067 h -3.712 v -14.63467 q 0,-5.50401 -5.12,-5.50401 -3.84,0 -5.2907,2.176 -1.408,2.13334 -1.408,6.14401 v 11.81867 h -3.7547 v -32.42669 h 3.7547 z m 31.4454,-0.384 q 2.944,0 5.0346,1.28 2.1334,1.28 3.2427,3.62667 1.152,2.304 1.152,5.41867 v 2.26133 h -15.6587 q 0.085,3.88267 1.9627,5.93067 1.92,2.00534 5.3333,2.00534 2.176,0 3.84,-0.384 1.7067,-0.42667 3.4987,-1.19467 v 3.28534 q -1.7493,0.768 -3.456,1.10933 -1.7067,0.384 -4.0533,0.384 -3.2427,0 -5.76,-1.32267 -2.4747,-1.32267 -3.8827,-3.92533 -1.3653,-2.64534 -1.3653,-6.44268 0,-3.75466 1.2373,-6.44267 1.28,-2.688 3.5413,-4.13867 2.304,-1.45066 5.3334,-1.45066 z m -0.043,3.072 q -2.688,0 -4.2667,1.74933 -1.536,1.70667 -1.8346,4.77867 h 11.648 q -0.043,-2.90133 -1.3654,-4.69333 -1.3226,-1.83467 -4.1813,-1.83467 z m 34.0053,17.57868 q 0.8533,0 1.7493,-0.128 0.896,-0.17067 1.4507,-0.34134 v 2.85867 q -0.5973,0.29867 -1.7067,0.46934 -1.1093,0.21333 -2.1333,0.21333 -1.792,0 -3.328,-0.59733 -1.4933,-0.64 -2.432,-2.17601 -0.9387,-1.536 -0.9387,-4.30933 v -13.31201 h -3.2427 v -1.792 l 3.2854,-1.49334 1.4933,-4.864 h 2.2187 v 5.248 h 6.6133 v 2.90134 h -6.6133 v 13.22667 q 0,2.09067 0.9813,3.11467 1.024,0.98134 2.6027,0.98134 z m 9.6854,-28.80002 q 0.8533,0 1.4933,0.59733 0.6827,0.55467 0.6827,1.792 0,1.19467 -0.6827,1.792 -0.64,0.59734 -1.4933,0.59734 -0.9387,0 -1.5787,-0.59734 -0.64,-0.59733 -0.64,-1.792 0,-1.23733 0.64,-1.792 0.64,-0.59733 1.5787,-0.59733 z m 1.8346,8.576 v 22.86935 h -3.7546 v -22.86935 z m 14.8907,20.22402 q 0.8533,0 1.7493,-0.128 0.896,-0.17067 1.4507,-0.34134 v 2.85867 q -0.5973,0.29867 -1.7067,0.46934 -1.1093,0.21333 -2.1333,0.21333 -1.792,0 -3.328,-0.59733 -1.4933,-0.64 -2.432,-2.17601 -0.9387,-1.536 -0.9387,-4.30933 v -13.31201 h -3.2426 v -1.792 l 3.2853,-1.49334 1.4933,-4.864 h 2.2187 v 5.248 h 6.6133 v 2.90134 h -6.6133 v 13.22667 q 0,2.09067 0.9813,3.11467 1.024,0.98134 2.6027,0.98134 z m 11.52,2.64533 h -3.7547 v -32.42669 h 3.7547 z m 16.0853,-23.29601 q 2.944,0 5.0347,1.28 2.1333,1.28 3.2426,3.62667 1.152,2.304 1.152,5.41867 v 2.26133 h -15.6586 q 0.085,3.88267 1.9626,5.93067 1.92,2.00534 5.3334,2.00534 2.176,0 3.84,-0.384 1.7066,-0.42667 3.4986,-1.19467 v 3.28534 q -1.7493,0.768 -3.456,1.10933 -1.7066,0.384 -4.0533,0.384 -3.2427,0 -5.76,-1.32267 -2.4747,-1.32267 -3.8827,-3.92533 -1.3653,-2.64534 -1.3653,-6.44268 0,-3.75466 1.2373,-6.44267 1.28,-2.688 3.5414,-4.13867 2.304,-1.45066 5.3333,-1.45066 z m -0.043,3.072 q -2.688,0 -4.2666,1.74933 -1.536,1.70667 -1.8347,4.77867 h 11.648 q -0.043,-2.90133 -1.3653,-4.69333 -1.3227,-1.83467 -4.1814,-1.83467 z m -1032.4485,47.9158 h -5.76 v 19.96802 h -3.754674 v -19.96802 h -4.010669 v -1.74933 l 4.010669,-1.28 v -1.32267 q 0,-4.43734 1.962664,-6.35734 1.96267,-1.96267 5.46134,-1.96267 1.36534,0 2.47467,0.256 1.152,0.21334 1.96267,0.512 l -0.98134,2.94401 q -0.68266,-0.21334 -1.57866,-0.42667 -0.896,-0.21333 -1.83467,-0.21333 -1.87734,0 -2.816,1.28 -0.896,1.23733 -0.896,3.92533 v 1.49334 h 5.76 z m 14.80534,-3.328 q 0.64,0 1.36533,0.0853 0.768,0.0427 1.32267,0.17067 l -0.46933,3.456 q -0.55467,-0.128 -1.23734,-0.21333 -0.64,-0.0853 -1.23733,-0.0853 -1.74934,0 -3.28534,0.98133 -1.536,0.93867 -2.47467,2.688 -0.896,1.70667 -0.896,4.01067 v 12.20268 h -3.75467 v -22.86935 h 3.07201 l 0.42666,4.18133 h 0.17067 q 1.10933,-1.87733 2.85867,-3.24266 1.74933,-1.36534 4.13867,-1.36534 z m 25.984,11.81868 q 0,5.67467 -2.90133,8.78934 -2.85867,3.11467 -7.76534,3.11467 -3.02934,0 -5.41867,-1.36534 -2.34667,-1.408 -3.71201,-4.05334 -1.36533,-2.688 -1.36533,-6.48533 0,-5.67467 2.85867,-8.74668 2.85867,-3.072 7.76534,-3.072 3.11467,0 5.46134,1.408 2.38933,1.36534 3.712,4.01067 1.36533,2.60267 1.36533,6.40001 z m -17.28001,0 q 0,4.05333 1.57867,6.44267 1.62133,2.34667 5.12,2.34667 3.456,0 5.07734,-2.34667 1.62133,-2.38934 1.62133,-6.44267 0,-4.05334 -1.62133,-6.35734 -1.62134,-2.304 -5.12001,-2.304 -3.49866,0 -5.07733,2.304 -1.57867,2.304 -1.57867,6.35734 z m 48.29869,-11.81868 q 3.88266,0 5.80267,2.00534 1.92,1.96266 1.92,6.4 v 14.89068 h -3.71201 v -14.72001 q 0,-5.41867 -4.65067,-5.41867 -3.328,0 -4.77867,1.92 -1.408,1.92 -1.408,5.58934 v 12.62934 h -3.712 v -14.72001 q 0,-5.41867 -4.69334,-5.41867 -3.456,0 -4.77867,2.13333 -1.32266,2.13334 -1.32266,6.14401 v 11.86134 h -3.75467 v -22.86935 h 3.02933 l 0.55467,3.11467 h 0.21333 q 1.06667,-1.792 2.85867,-2.64534 1.83467,-0.896 3.88267,-0.896 5.376,0 6.99734,3.84 h 0.21333 q 1.152,-1.96266 3.11467,-2.90133 2.00534,-0.93867 4.22401,-0.93867 z m 33.53601,20.65068 q 0.85333,0 1.74933,-0.128 0.896,-0.17066 1.45067,-0.34133 v 2.85867 q -0.59734,0.29867 -1.70667,0.46933 -1.10933,0.21334 -2.13333,0.21334 -1.79201,0 -3.32801,-0.59734 -1.49333,-0.64 -2.432,-2.176 -0.93867,-1.536 -0.93867,-4.30934 v -13.31201 h -3.24267 v -1.792 l 3.28534,-1.49333 1.49333,-4.86401 h 2.21867 v 5.24801 h 6.61334 v 2.90133 h -6.61334 v 13.22668 q 0,2.09067 0.98134,3.11467 1.024,0.98133 2.60267,0.98133 z m 11.52001,-20.26668 q 0,1.70667 -0.21334,3.2 h 0.256 q 1.10934,-1.74933 2.98667,-2.64533 1.92,-0.896 4.13867,-0.896 4.18134,0 6.27201,2.00533 2.09066,1.96267 2.09066,6.35734 v 14.89068 h -3.712 v -14.63468 q 0,-5.504 -5.12,-5.504 -3.84001,0 -5.29067,2.176 -1.408,2.13333 -1.408,6.144 v 11.81868 h -3.75467 v -32.42669 h 3.75467 z m 31.44536,-0.384 q 2.944,0 5.03467,1.28 2.13334,1.28 3.24267,3.62667 1.152,2.304 1.152,5.41867 v 2.26134 h -15.65868 q 0.0853,3.88267 1.96267,5.93067 1.92,2.00533 5.33334,2.00533 2.176,0 3.84,-0.384 1.70667,-0.42666 3.49867,-1.19466 v 3.28533 q -1.74934,0.768 -3.456,1.10934 -1.70667,0.384 -4.05334,0.384 -3.24267,0 -5.76,-1.32267 -2.47467,-1.32267 -3.88267,-3.92534 -1.36534,-2.64533 -1.36534,-6.44267 0,-3.75467 1.23734,-6.44267 1.28,-2.688 3.54133,-4.13867 2.304,-1.45067 5.33334,-1.45067 z m -0.0427,3.072 q -2.688,0 -4.26667,1.74934 -1.536,1.70667 -1.83466,4.77867 h 11.648 q -0.0427,-2.90134 -1.36533,-4.69334 -1.32267,-1.83467 -4.18134,-1.83467 z m 35.54134,20.65069 q -3.02934,0 -5.41867,-1.23734 -2.34667,-1.23733 -3.71201,-3.84 -1.32266,-2.60267 -1.32266,-6.65601 0,-4.224 1.408,-6.86933 1.408,-2.64534 3.79733,-3.88267 2.432,-1.23734 5.50401,-1.23734 1.74933,0 3.37067,0.384 1.62133,0.34134 2.64533,0.85334 l -1.152,3.11466 q -1.024,-0.384 -2.38933,-0.72533 -1.36534,-0.34133 -2.56001,-0.34133 -6.74133,0 -6.74133,8.66134 0,4.13867 1.62133,6.35733 1.664,2.17601 4.90667,2.17601 1.87733,0 3.28534,-0.384 1.45066,-0.384 2.64533,-0.93867 v 3.328 q -1.152,0.59734 -2.56,0.896 -1.36534,0.34134 -3.328,0.34134 z m 31.18933,-11.90401 q 0,5.67467 -2.90133,8.78934 -2.85867,3.11467 -7.76534,3.11467 -3.02934,0 -5.41867,-1.36534 -2.34667,-1.408 -3.712,-4.05334 -1.36534,-2.688 -1.36534,-6.48533 0,-5.67467 2.85867,-8.74668 2.85867,-3.072 7.76534,-3.072 3.11467,0 5.46134,1.408 2.38933,1.36534 3.712,4.01067 1.36533,2.60267 1.36533,6.40001 z m -17.28001,0 q 0,4.05333 1.57867,6.44267 1.62133,2.34667 5.12,2.34667 3.45601,0 5.07734,-2.34667 1.62133,-2.38934 1.62133,-6.44267 0,-4.05334 -1.62133,-6.35734 -1.62133,-2.304 -5.12,-2.304 -3.49867,0 -5.07734,2.304 -1.57867,2.304 -1.57867,6.35734 z m 34.21866,-11.81868 q 4.09601,0 6.18668,2.00534 2.09066,1.96266 2.09066,6.4 v 14.89068 h -3.712 v -14.63468 q 0,-5.504 -5.12,-5.504 -3.79734,0 -5.24801,2.13333 -1.45066,2.13334 -1.45066,6.14401 v 11.86134 h -3.75467 v -22.86935 h 3.02933 l 0.55467,3.11467 h 0.21333 q 1.10934,-1.792 3.072,-2.64534 1.96267,-0.896 4.13867,-0.896 z m 22.99736,20.65068 q 0.85334,0 1.74934,-0.128 0.896,-0.17066 1.45066,-0.34133 v 2.85867 q -0.59733,0.29867 -1.70666,0.46933 -1.10934,0.21334 -2.13334,0.21334 -1.792,0 -3.328,-0.59734 -1.49334,-0.64 -2.432,-2.176 -0.93867,-1.536 -0.93867,-4.30934 v -13.31201 h -3.24267 v -1.792 l 3.28534,-1.49333 1.49333,-4.86401 h 2.21867 v 5.24801 h 6.61334 v 2.90133 h -6.61334 v 13.22668 q 0,2.09067 0.98133,3.11467 1.024,0.98133 2.60267,0.98133 z m 16.59735,-20.65068 q 2.944,0 5.03467,1.28 2.13333,1.28 3.24267,3.62667 1.152,2.304 1.152,5.41867 v 2.26134 h -15.65868 q 0.0853,3.88267 1.96267,5.93067 1.92,2.00533 5.33334,2.00533 2.176,0 3.84,-0.384 1.70667,-0.42666 3.49867,-1.19466 v 3.28533 q -1.74934,0.768 -3.456,1.10934 -1.70667,0.384 -4.05334,0.384 -3.24267,0 -5.76,-1.32267 -2.47467,-1.32267 -3.88267,-3.92534 -1.36534,-2.64533 -1.36534,-6.44267 0,-3.75467 1.23734,-6.44267 1.28,-2.688 3.54133,-4.13867 2.304,-1.45067 5.33334,-1.45067 z m -0.0427,3.072 q -2.688,0 -4.26667,1.74934 -1.536,1.70667 -1.83467,4.77867 h 11.64801 q -0.0427,-2.90134 -1.36533,-4.69334 -1.32267,-1.83467 -4.18134,-1.83467 z m 26.28267,-3.072 q 4.096,0 6.18667,2.00534 2.09067,1.96266 2.09067,6.4 v 14.89068 h -3.71201 v -14.63468 q 0,-5.504 -5.12,-5.504 -3.79734,0 -5.24801,2.13333 -1.45066,2.13334 -1.45066,6.14401 v 11.86134 h -3.75467 v -22.86935 h 3.02933 l 0.55467,3.11467 h 0.21333 q 1.10934,-1.792 3.07201,-2.64534 1.96266,-0.896 4.13867,-0.896 z m 22.99734,20.65068 q 0.85333,0 1.74933,-0.128 0.896,-0.17066 1.45067,-0.34133 v 2.85867 q -0.59733,0.29867 -1.70667,0.46933 -1.10933,0.21334 -2.13333,0.21334 -1.792,0 -3.328,-0.59734 -1.49334,-0.64 -2.43201,-2.176 -0.93866,-1.536 -0.93866,-4.30934 v -13.31201 h -3.24267 v -1.792 l 3.28533,-1.49333 1.49334,-4.86401 h 2.21867 v 5.24801 h 6.61333 v 2.90133 h -6.61333 v 13.22668 q 0,2.09067 0.98133,3.11467 1.024,0.98133 2.60267,0.98133 z m 7.21067,0.34134 q 0,-1.57867 0.768,-2.21867 0.768,-0.64 1.83467,-0.64 1.10933,0 1.87733,0.64 0.81067,0.64 0.81067,2.21867 0,1.536 -0.81067,2.21867 -0.768,0.68266 -1.87733,0.68266 -1.06667,0 -1.83467,-0.68266 -0.768,-0.68267 -0.768,-2.21867 z"
       id="flowRoot967"
       style="font-size:42.6667px;line-height:47.6598px;font-family:Raleway;-inkscape-font-specification:Raleway;letter-spacing:0px;word-spacing:0px;fill:#ffffff;stroke-width:1px"
       transform="matrix(0.26458333,0,0,0.26458333,0,164.70832)"
       aria-label="This plugin draws a subtle outline around block editor blocks (first four layers) and separates the title from the content." /><text
       xml:space="preserve"
       style="font-style:normal;font-variant:normal;font-weight:normal;font-stretch:normal;font-size:11.2889px;line-height:6.61458px;font-family:Raleway;-inkscape-font-specification:Raleway;letter-spacing:0px;word-spacing:0px;fill:#ffffff;fill-opacity:1;stroke:none;stroke-width:0.264583px;stroke-linecap:butt;stroke-linejoin:miter;stroke-opacity:1"
       x="14.287501"
       y="199.48213"
       id="text977"><tspan
         sodipodi:role="line"
         id="tspan975"
         x="14.287501"
         y="199.48213"
         style="font-size:11.2889px;fill:#ffffff;fill-opacity:1;stroke-width:0.264583px">✔ </tspan></text><g
       id="layer1-0"
       inkscape:label="Elemente"
       transform="matrix(0.04901878,0,0,0.04901878,377.82322,263.22742)"><ellipse
         fill="#131f33"
         cx="-252.0489"
         cy="679.40424"
         transform="rotate(-70)"
         rx="12.535479"
         ry="12.165954"
         id="ellipse103"
         style="stroke-width:1.42126" /><path
         fill="#fa752a"
         d="m 293.94813,69.02 q 0.21319,0 0.39795,0.08527 a 0.56850247,0.58271503 4.4 0 1 0.31268,0.369527 q 3.38258,11.881701 5.89821,16.600271 c 7.43316,13.942522 19.18696,18.646882 33.4848,22.839592 a 0.72484064,0.72484064 0 0 1 0.41216,1.08016 q -0.61115,0.93802 -1.40705,1.16543 c -13.9141,3.78053 -25.96635,8.58438 -32.64625,22.44163 q -3.75211,7.8169 -6.1114,16.84188 -0.12791,0.51165 -0.71063,0.51165 -0.5685,0 -0.69641,-0.51165 -2.27401,-9.0534 -5.95506,-16.89873 c -6.552,-13.9141 -18.56161,-18.83164 -32.44729,-22.7401 q -0.7959,-0.2274 -1.39282,-1.17964 a 0.72484064,0.72484064 0 0 1 0.42637,-1.06594 c 14.32627,-4.06479 26.12269,-8.669668 33.68377,-22.541128 q 2.55827,-4.704358 6.04034,-16.543422 a 0.58271503,0.56850247 86.1 0 1 0.31267,-0.369527 Q 293.74916,69.02 293.94813,69.02 Z"
         id="path74"
         style="stroke-width:1.42126" /><path
         fill="#5daa93"
         d="m 436.81934,162.25552 -23.06698,29.37737 a 0.45480197,0.45480197 0 0 1 -0.81012,-0.28426 q 0.52586,-31.94983 0.0995,-49.21809 -0.0711,-2.75724 -1.13701,-4.07901 a 2.2455847,2.2455847 0 0 0 -3.97952,1.09436 q -0.95223,7.04944 -0.85275,15.44906 0.29846,23.13805 0.15634,38.16073 a 0.51165222,0.51165222 0 0 1 -0.93803,0.28426 q -11.12844,-15.93229 -15.25008,-21.4894 -2.21716,-2.99885 -5.59976,-5.98349 a 1.1085798,1.0943672 21 0 0 -1.83341,0.81012 q -0.0426,3.36837 1.60602,5.92664 10.24726,15.847 19.32908,28.43933 a 6.8646673,6.6088412 18.7 0 1 0.86697,1.67708 q 1.71972,4.87491 1.6913,10.07671 -0.14214,24.37455 -0.31268,49.2181 -15.80438,-13.1324 -23.37967,-28.26878 -4.54802,-9.09604 -6.16825,-21.6031 c -1.86185,-14.53945 -0.72484,-29.74689 4.98861,-43.74626 a 3.9084545,3.9937298 58.6 0 0 0.29846,-1.17965 q 0.17056,-1.5918 0.79591,-3.1694 c 3.63841,-9.11025 8.44226,-17.49566 15.3922,-26.22218 q 5.71345,-7.16312 10.34675,-12.87658 a 1.9471209,1.9471209 0 0 1 2.97042,-0.0853 q 15.2785,16.89873 24.78671,37.69172 z"
         id="path91"
         style="stroke-width:1.42126" /><path
         fill="#131f33"
         d="m 436.81934,162.25552 1.53496,4.00794 q -4.66172,9.55084 -7.83112,13.43088 -7.53266,9.22395 -15.10795,20.45187 a 5.2017976,5.2302227 70.2 0 0 -0.668,1.40705 q -1.54917,5.07389 -1.52074,6.04034 0.75326,26.56328 0.21319,51.52053 a 2.529836,2.4729857 32.1 0 0 0.29847,1.23649 l 0.28424,0.54009 q -0.52586,2.03239 -0.54007,4.1927 -0.35532,41.65702 -0.36953,60.75869 0,6.42409 0.51165,12.13754 a 0.54007734,0.54007734 0 0 0 1.02331,0.19897 l 11.21371,-22.28529 q 16.03176,-21.41833 28.19772,-35.21873 19.08746,-21.63152 50.66778,-53.9651 c 1.94713,-2.00397 4.37747,-3.75211 6.97837,-4.56223 a 1.1938552,1.1938552 0 0 1 1.39283,1.71972 c -4.07901,7.33368 -10.64521,13.65827 -16.515,20.52294 -3.04148,3.56735 -6.19667,6.01191 -8.89706,9.40872 q -3.01307,3.79474 -6.32459,7.40473 -25.26993,27.57238 -49.03334,56.97817 -6.70833,10.61678 -9.15289,16.89874 -4.13585,10.63099 -8.4849,24.5593 c -1.47811,4.747 -1.42126,8.81179 -1.46389,13.70091 q -0.19897,21.74522 0.27004,48.01003 a 0.41216429,0.41216429 0 0 0 0.75327,0.2274 l 10.64521,-16.1881 c 26.7054,-28.93678 56.15382,-55.05947 86.85295,-81.94964 q 5.13074,-4.47695 11.78222,-8.04431 a 1.4781065,1.4781065 0 0 1 2.1461,1.06595 q 0.32689,2.10346 -1.52075,3.79476 -13.24611,12.18016 -34.33755,30.65648 -14.99425,13.14662 -45.18173,43.29147 -7.56108,7.53266 -14.39732,16.21654 -10.36096,12.08067 -14.43996,28.65251 l -12.8908,0.0426 c -0.89539,-14.99425 -6.18246,-29.23524 -13.30296,-41.67123 q -3.22625,-5.61396 -9.29501,-11.66851 -3.24046,-3.24046 -6.77939,-3.46786 -8.0301,-0.54008 -13.70092,-1.27913 c -23.6497,-3.12676 -47.25676,-17.58093 -59.25216,-38.67237 q -10.48887,-18.46212 -13.14662,-39.21246 a 1.3217682,1.3359808 81.2 0 1 1.08016,-1.46389 l 5.72766,-1.05174 a 2.7856621,3.0557008 64.9 0 1 0.42637,-0.0284 q 14.78107,-0.14212 16.78504,0.19898 20.26711,3.42522 32.10618,9.15289 27.64343,13.40244 42.36764,43.30567 c 2.27401,4.61909 3.60999,10.34674 5.34392,16.515 2.04661,7.21998 7.85955,17.46723 10.11935,23.72076 q 2.7288,7.58951 3.68105,16.07441 a 0.28425124,0.28425124 0 0 0 0.55429,0.0284 l 0.83854,-3.68105 a 6.8930924,6.9925803 50.6 0 0 0.15634,-1.46389 c -0.0711,-17.35354 0.88118,-30.62807 -1.10858,-44.01631 q -3.24046,-21.77364 -14.38311,-42.0976 -1.17965,-2.1461 -2.06082,-4.03637 -10.26148,-13.54457 -21.4894,-25.93792 -24.4456,-26.98966 -54.8747,-59.05319 -2.67195,-2.81409 -3.69526,-6.59464 a 0.81011602,0.81011602 0 0 1 0.73905,-1.02331 q 2.40192,-0.14212 3.46787,0.88119 38.55867,37.12321 72.49827,77.33055 2.64354,3.14097 5.23022,6.73674 2.52984,3.53893 5.07389,7.13471 6.40986,10.55994 7.74585,16.57185 0.88117,3.97952 2.57247,7.34789 a 0.34110148,0.34110148 0 0 0 0.63957,-0.15633 L 406.7882,261.715 q 0.17055,-24.84355 0.31268,-49.2181 0.0284,-5.2018 -1.6913,-10.07671 a 6.8646673,6.6088412 18.7 0 0 -0.86696,-1.67708 q -9.08183,-12.59233 -19.32909,-28.43933 -1.64866,-2.55827 -1.60602,-5.92664 a 1.1085798,1.0943672 21 0 1 1.83342,-0.81012 q 3.38259,2.98464 5.59975,5.98349 4.12164,5.55711 15.25008,21.4894 a 0.51165222,0.51165222 0 0 0 0.93803,-0.28426 q 0.14213,-15.02268 -0.15634,-38.16073 -0.0995,-8.39962 0.85275,-15.44906 a 2.2455847,2.2455847 0 0 1 3.97952,-1.09436 q 1.06595,1.32177 1.13701,4.07901 0.42637,17.26826 -0.0995,49.21809 a 0.45480197,0.45480197 0 0 0 0.81012,0.28426 z M 306.40488,316.06387 q 1.64866,3.59577 5.03124,6.04033 23.69235,17.23984 47.96739,38.75766 8.49912,7.53266 20.48031,18.20629 a 0.65377784,0.65377784 0 0 0 1.00909,-0.78169 q -2.04661,-4.02215 -5.2018,-7.09207 -7.61793,-7.37631 -20.55136,-18.73216 c -8.98234,-7.85953 -18.47633,-14.73842 -27.74292,-22.48426 q -2.40192,-2.00397 -20.66507,-14.19836 a 0.22740099,0.22740099 0 0 0 -0.32688,0.28426 z"
         id="path92"
         style="stroke-width:1.42126" /><path
         fill="#5daa93"
         d="m 414.02239,260.89071 -0.28424,-0.54009 a 2.529836,2.4729857 32.1 0 1 -0.29847,-1.23649 q 0.54007,-24.95725 -0.21319,-51.52053 -0.0284,-0.96645 1.52074,-6.04034 a 5.2017976,5.2302227 70.2 0 1 0.668,-1.40705 q 7.57529,-11.22792 15.10795,-20.45187 3.1694,-3.88004 7.83112,-13.43088 1.73393,5.65661 3.56735,11.7538 2.20295,7.3621 2.6009,11.96697 c 1.20807,14.04201 0.49744,29.27788 -5.62817,41.75651 q -3.92267,8.01589 -9.84931,15.36378 -5.96928,7.41896 -13.31717,12.36493 -0.90961,0.61114 -1.70551,1.42126 z"
         id="path93"
         style="stroke-width:1.42126" /><path
         fill="#fa752a"
         d="m 396.01508,313.77564 q -2.54405,-3.59578 -5.07389,-7.13471 -2.58668,-3.59577 -5.23022,-6.73674 -33.9396,-40.20734 -72.49827,-77.33055 -1.06595,-1.02331 -3.46787,-0.88119 a 0.81011602,0.81011602 0 0 0 -0.73905,1.02331 q 1.02331,3.78055 3.69526,6.59464 30.4291,32.06353 54.8747,59.05319 11.22792,12.39335 21.4894,25.93792 -9.20974,-1.67709 -17.50988,-3.19782 -4.93177,-0.90961 -16.48657,-5.25866 -9.09604,-3.42522 -15.37799,-8.17222 c -17.43882,-13.14662 -30.40067,-31.53767 -35.03397,-51.96112 q -3.52471,-15.60539 -5.5429,-31.76508 -0.35531,-2.88515 2.24559,-3.83739 a 2.7288118,2.6293239 36 0 1 1.12279,-0.15634 q 19.88338,1.69129 39.46829,10.01986 c 14.51102,6.16825 25.51155,16.42972 35.4319,28.65252 q 3.75213,4.64751 7.24842,11.10001 13.51615,25.02833 11.38426,54.05037 z"
         id="path94-9"
         style="stroke-width:1.42126" /><path
         fill="#fa752a"
         d="m 432.32817,318.18154 q 23.76341,-29.40579 49.03334,-56.97817 3.31152,-3.60999 6.32459,-7.40473 c 2.70039,-3.39681 5.85558,-5.84137 8.89706,-9.40872 5.86979,-6.86467 12.43599,-13.18926 16.515,-20.52294 a 1.1938552,1.1938552 0 0 0 -1.39283,-1.71972 c -2.6009,0.81012 -5.03124,2.55826 -6.97837,4.56223 q -31.58032,32.33358 -50.66778,53.9651 -12.16596,13.8004 -28.19772,35.21873 -2.16031,-17.72307 2.74302,-34.0533 11.88171,-39.49671 48.12373,-58.75473 9.30923,-4.94597 15.74752,-6.62306 12.97608,-3.3968 25.42628,-6.08297 a 1.7055073,1.7055073 0 0 1 2.01818,1.30755 c 0.48323,2.27401 1.15122,6.06877 0.88118,9.69297 -2.43035,33.0442 -15.54854,63.00429 -43.12091,82.56078 -5.81294,4.12164 -11.04317,6.50935 -18.06417,9.13866 q -12.86237,4.80386 -27.28812,5.10232 z"
         id="path95"
         style="stroke-width:1.42126" /><path
         fill="#5daa93"
         d="m 430.23893,410.42107 q 6.83624,-8.68388 14.39732,-16.21654 30.18748,-30.14485 45.18173,-43.29147 21.09144,-18.47632 34.33755,-30.65648 1.84764,-1.6913 1.52075,-3.79476 a 1.4781065,1.4781065 0 0 0 -2.1461,-1.06595 q -6.65148,3.56736 -11.78222,8.04431 c -30.69913,26.89017 -60.14755,53.01286 -86.85295,81.94964 q -2.31665,-30.89812 15.9607,-56.19647 4.46275,-6.18246 9.92036,-10.70206 26.64856,-22.10053 61.28457,-25.341 6.4525,-0.61114 14.22678,0.21319 a 2.0181838,2.0181838 0 0 1 1.74814,2.44456 c -1.57759,7.21998 -1.94712,18.44791 -4.15006,25.7958 q -7.37633,24.47403 -20.66507,39.08454 -21.73101,23.91975 -55.898,28.12667 -12.57812,1.54916 -17.0835,1.60602 z"
         id="path96"
         style="stroke-width:1.42126" /><path
         fill="#8c9fa4"
         d="m 306.73176,315.77961 q 18.26315,12.19439 20.66507,14.19836 c 9.26659,7.74584 18.76058,14.62473 27.74292,22.48426 q 12.93343,11.35585 20.55136,18.73216 3.15519,3.06992 5.2018,7.09207 a 0.65377784,0.65377784 0 0 1 -1.00909,0.78169 q -11.98119,-10.67363 -20.48031,-18.20629 -24.27504,-21.51782 -47.96739,-38.75766 -3.38258,-2.44456 -5.03124,-6.04033 a 0.22740099,0.22740099 0 0 1 0.32688,-0.28426 z"
         id="path97"
         style="stroke-width:1.42126" /><path
         fill="#fa752a"
         d="m 384.9577,422.71493 q -19.78388,-17.50988 -47.93897,-24.90041 a 2.3166476,2.3308601 22.6 0 0 -2.60089,1.08016 l -0.0284,0.0568 a 1.6060195,1.6060195 0 0 0 0.72485,2.274 q 17.21141,7.70322 26.73382,11.5406 10.04828,4.03637 18.41948,9.9488 -1.54917,-0.17055 -4.96019,0.21319 -16.23074,1.83341 -32.8168,-5.52869 c -4.9886,-2.21716 -11.4269,-6.96416 -14.31205,-10.68785 q -4.06479,-5.23022 -7.21998,-8.86863 a 2.302435,2.2455847 15.2 0 1 -0.41216,-0.69642 l -2.08925,-5.82715 a 1.2222803,1.2222803 0 0 1 0.99488,-1.62024 l 11.0858,-1.54916 a 2.4587731,1.8334205 34.9 0 1 0.44058,-0.0142 q 13.08977,0.72483 17.93626,1.80499 12.15174,2.68618 23.93395,12.46441 a 8.6128124,8.8260007 2.3 0 1 1.64866,1.83343 q 2.17452,3.26889 5.55711,7.03522 2.34507,2.61511 4.90334,11.44111 z"
         id="path98"
         style="stroke-width:1.42126" /><path
         fill="#3e1a0a"
         d="m 384.9577,422.71493 1.32177,1.74815 a 1.0233044,1.0233044 0 0 1 -1.53495,1.33597 q -2.08925,-2.08924 -4.47696,-3.08412 -8.3712,-5.91242 -18.41948,-9.9488 -9.52241,-3.83738 -26.73382,-11.5406 a 1.6060195,1.6060195 0 0 1 -0.72485,-2.274 l 0.0284,-0.0568 a 2.3166476,2.3308601 22.6 0 1 2.60089,-1.08016 q 28.15509,7.39054 47.93897,24.90041 z"
         id="path99"
         style="stroke-width:1.42126" /><path
         fill="#fa752a"
         d="m 402.90817,439.11622 12.8908,-0.0426 q 0.0142,0.82433 0.41216,1.25072 0.48322,0.51165 1.2507,0.36953 c 3.9511,-0.69642 7.5753,0.0142 12.36493,0.0142 q 1.87606,0 57.77407,0.0142 2.91357,0 7.5895,-0.19898 3.29732,-0.14212 9.73561,0.31268 a 0.8527537,0.8527537 0 0 1 0.7959,0.85275 v 21.56046 a 2.5014108,2.4871982 87.3 0 1 -2.25979,2.48719 q -5.5429,0.51166 -13.58722,0.24162 -0.54007,-0.0142 -0.82433,0.22739 -0.31267,0.25583 -0.44059,0.72485 l -0.38374,-0.2274 a 1.6912948,1.7055073 59.7 0 0 -0.82432,-0.21319 l -158.72589,0.32689 q 0.0568,-0.36953 -0.31267,-0.66799 a 0.61114015,0.62535272 65.7 0 0 -0.39795,-0.14213 h -12.19438 a 2.9562128,2.9562128 0 0 1 -2.95621,-2.95622 v -19.40014 a 2.9135751,2.9135751 0 0 1 2.91357,-2.91357 c 6.82203,-0.0142 11.21371,-1.20806 17.23983,-0.38374 6.06876,0.82433 12.32229,0 18.41948,-0.32689 q 4.00794,-0.19898 9.29502,0.29847 5.69924,0.54007 15.23587,-0.668 1.50653,-0.18476 9.93458,1.03753 3.25467,0.46901 8.66965,-0.73906 a 5.1449473,5.2870729 44.2 0 1 2.0182,-0.0568 q 5.30128,0.89539 6.36722,-0.78169 z"
         id="path101"
         style="stroke-width:1.42126" /><path
         fill="#131f33"
         d="m 488.60991,466.93021 q -0.19897,3.95109 -1.00908,7.90218 c -0.54009,2.68618 -0.39795,6.53778 -1.93291,9.39451 l -154.22051,-0.12792 q -1.0233,-2.34507 -1.29334,-5.14495 -0.32689,-3.2831 -0.73906,-5.24443 -0.71063,-3.42522 -0.73905,-6.89309 l 158.72589,-0.32689 a 1.6912948,1.7055073 59.7 0 1 0.82432,0.21319 z"
         id="path103"
         style="stroke-width:1.42126" /><path
         fill="#fa752a"
         d="m 485.66792,484.2269 c -1.32177,3.59578 -1.50654,8.30013 -1.97555,11.00052 q -6.86466,39.29774 -12.39335,80.58522 c -0.4548,3.3826 -9.84931,4.81806 -12.59234,4.94598 q -12.3365,0.5685 -24.43139,-0.0995 c -24.72985,-1.37861 -46.63141,-0.81011 -74.70122,-0.86696 q -7.51845,-0.0142 -8.51333,-0.32689 c -5.74187,-1.77657 -7.021,-10.68784 -6.94994,-15.93227 a 2.2171596,2.5156235 37.3 0 0 -0.0426,-0.58272 L 331.44742,484.099 Z"
         id="path104"
         style="stroke-width:1.42126" /><circle
         fill="#131f33"
         cx="498.14655"
         cy="135.83438"
         r="15.974918"
         id="circle91"
         style="stroke-width:1.42126" /></g></g></svg>
