<?xml version="1.0" encoding="UTF-8" standalone="no"?>
<!-- Created with Inkscape (http://www.inkscape.org/) -->

<svg
   width="512"
   height="512"
   viewBox="0 0 135.46666 135.46667"
   version="1.1"
   id="svg8"
   sodipodi:docname="icon.svg"
   inkscape:export-filename="icon-256x256.png"
   inkscape:export-xdpi="48"
   inkscape:export-ydpi="48"
   inkscape:version="1.4.3 (0d15f75, 2025-12-25)"
   xmlns:inkscape="http://www.inkscape.org/namespaces/inkscape"
   xmlns:sodipodi="http://sodipodi.sourceforge.net/DTD/sodipodi-0.dtd"
   xmlns="http://www.w3.org/2000/svg"
   xmlns:svg="http://www.w3.org/2000/svg"
   xmlns:rdf="http://www.w3.org/1999/02/22-rdf-syntax-ns#"
   xmlns:cc="http://creativecommons.org/ns#"
   xmlns:dc="http://purl.org/dc/elements/1.1/">
  <defs
     id="defs2">
    <clipPath
       id="clipPath20"
       clipPathUnits="userSpaceOnUse">
      <path
         inkscape:connector-curvature="0"
         id="path22"
         d="M 0,595.28 H 841.89 V 0 H 0 Z" />
    </clipPath>
    <clipPath
       id="clipPath92"
       clipPathUnits="userSpaceOnUse">
      <path
         inkscape:connector-curvature="0"
         id="path94"
         d="M 0,595.28 H 841.89 V 0 H 0 Z" />
    </clipPath>
    <clipPath
       id="clipPath20-4"
       clipPathUnits="userSpaceOnUse">
      <path
         inkscape:connector-curvature="0"
         id="path22-7"
         d="M 0,595.28 H 841.89 V 0 H 0 Z" />
    </clipPath>
    <clipPath
       id="clipPath92-4"
       clipPathUnits="userSpaceOnUse">
      <path
         inkscape:connector-curvature="0"
         id="path94-0"
         d="M 0,595.28 H 841.89 V 0 H 0 Z" />
    </clipPath>
  </defs>
  <sodipodi:namedview
     id="base"
     pagecolor="#000000"
     bordercolor="#666666"
     borderopacity="1.0"
     inkscape:pageopacity="1"
     inkscape:pageshadow="2"
     inkscape:zoom="0.7"
     inkscape:cx="217.14286"
     inkscape:cy="176.42857"
     inkscape:document-units="mm"
     inkscape:current-layer="layer1"
     showgrid="false"
     units="px"
     inkscape:window-width="2133"
     inkscape:window-height="1309"
     inkscape:window-x="8"
     inkscape:window-y="16"
     inkscape:window-maximized="0"
     inkscape:pagecheckerboard="true"
     borderlayer="true"
     inkscape:showpageshadow="0"
     inkscape:deskcolor="#505050" />
  <metadata
     id="metadata5">
    <rdf:RDF>
      <cc:Work
         rdf:about="">
        <dc:format>image/svg+xml</dc:format>
        <dc:type
           rdf:resource="http://purl.org/dc/dcmitype/StillImage" />
      </cc:Work>
    </rdf:RDF>
  </metadata>
  <g
     inkscape:label="Ebene 1"
     inkscape:groupmode="layer"
     id="layer1"
     transform="translate(0,-161.53332)">
    <rect
       style="fill:#2c045d;fill-opacity:1;stroke-width:0.54162;-inkscape-stroke:none"
       id="rect3"
       width="135.46666"
       height="135.46666"
       x="0"
       y="161.53333" />
    <flowRoot
       xml:space="preserve"
       id="flowRoot1726"
       style="font-style:normal;font-variant:normal;font-weight:normal;font-stretch:normal;font-size:37.3333px;line-height:55.2189px;font-family:Raleway;-inkscape-font-specification:Raleway;letter-spacing:0px;word-spacing:0px;fill:#ffffff;fill-opacity:1;stroke:none;stroke-width:1px;stroke-linecap:butt;stroke-linejoin:miter;stroke-opacity:1"
       transform="matrix(0.45635208,0,0,0.45635208,-4.7746131,152.50984)"><flowRegion
         id="flowRegion1728"
         style="font-size:37.3333px;line-height:55.2189px;fill:#ffffff;fill-opacity:1"><rect
           id="rect1730"
           width="372.85715"
           height="247.14285"
           x="21.428572"
           y="26.285715"
           style="font-size:37.33333206px;line-height:55.21889877px;fill:#ffffff;fill-opacity:1" /></flowRegion><flowPara
         id="flowPara1571">Block</flowPara><flowPara
         id="flowPara3">Highlighter</flowPara></flowRoot>
    <flowRoot
       xml:space="preserve"
       id="flowRoot959-8"
       style="font-style:normal;font-variant:normal;font-weight:normal;font-stretch:normal;font-size:24px;line-height:47.6598px;font-family:Raleway;-inkscape-font-specification:Raleway;letter-spacing:0px;word-spacing:0px;fill:#ffffff;fill-opacity:1;stroke:none;stroke-width:1px;stroke-linecap:butt;stroke-linejoin:miter;stroke-opacity:1"
       transform="matrix(0.33373398,0,0,0.33373398,-186.80223,177.11021)"><flowRegion
         id="flowRegion961-8"
         style="font-size:24px;line-height:47.6598px;fill:#ffffff;fill-opacity:1"><rect
           id="rect963-2"
           width="267.14285"
           height="51.428562"
           x="668.57141"
           y="312.85715"
           style="font-size:24px;line-height:47.6598px;fill:#ffffff;fill-opacity:1" /></flowRegion><flowPara
         id="flowPara965-4">by meine-infoseite.de</flowPara></flowRoot>
    <g
       id="layer1-0"
       inkscape:label="Elemente"
       transform="matrix(0.04901878,0,0,0.04901878,104.80019,264.02117)">
      <ellipse
         fill="#131f33"
         cx="-252.0489"
         cy="679.40424"
         transform="rotate(-70)"
         rx="12.535479"
         ry="12.165954"
         id="ellipse103"
         style="stroke-width:1.42126" />
      <path
         fill="#fa752a"
         d="m 293.94813,69.02 q 0.21319,0 0.39795,0.08527 a 0.56850247,0.58271503 4.4 0 1 0.31268,0.369527 q 3.38258,11.881701 5.89821,16.600271 c 7.43316,13.942522 19.18696,18.646882 33.4848,22.839592 a 0.72484064,0.72484064 0 0 1 0.41216,1.08016 q -0.61115,0.93802 -1.40705,1.16543 c -13.9141,3.78053 -25.96635,8.58438 -32.64625,22.44163 q -3.75211,7.8169 -6.1114,16.84188 -0.12791,0.51165 -0.71063,0.51165 -0.5685,0 -0.69641,-0.51165 -2.27401,-9.0534 -5.95506,-16.89873 c -6.552,-13.9141 -18.56161,-18.83164 -32.44729,-22.7401 q -0.7959,-0.2274 -1.39282,-1.17964 a 0.72484064,0.72484064 0 0 1 0.42637,-1.06594 c 14.32627,-4.06479 26.12269,-8.669668 33.68377,-22.541128 q 2.55827,-4.704358 6.04034,-16.543422 a 0.58271503,0.56850247 86.1 0 1 0.31267,-0.369527 Q 293.74916,69.02 293.94813,69.02 Z"
         id="path74-5"
         style="stroke-width:1.42126" />
      <path
         fill="#5daa93"
         d="m 436.81934,162.25552 -23.06698,29.37737 a 0.45480197,0.45480197 0 0 1 -0.81012,-0.28426 q 0.52586,-31.94983 0.0995,-49.21809 -0.0711,-2.75724 -1.13701,-4.07901 a 2.2455847,2.2455847 0 0 0 -3.97952,1.09436 q -0.95223,7.04944 -0.85275,15.44906 0.29846,23.13805 0.15634,38.16073 a 0.51165222,0.51165222 0 0 1 -0.93803,0.28426 q -11.12844,-15.93229 -15.25008,-21.4894 -2.21716,-2.99885 -5.59976,-5.98349 a 1.1085798,1.0943672 21 0 0 -1.83341,0.81012 q -0.0426,3.36837 1.60602,5.92664 10.24726,15.847 19.32908,28.43933 a 6.8646673,6.6088412 18.7 0 1 0.86697,1.67708 q 1.71972,4.87491 1.6913,10.07671 -0.14214,24.37455 -0.31268,49.2181 -15.80438,-13.1324 -23.37967,-28.26878 -4.54802,-9.09604 -6.16825,-21.6031 c -1.86185,-14.53945 -0.72484,-29.74689 4.98861,-43.74626 a 3.9084545,3.9937298 58.6 0 0 0.29846,-1.17965 q 0.17056,-1.5918 0.79591,-3.1694 c 3.63841,-9.11025 8.44226,-17.49566 15.3922,-26.22218 q 5.71345,-7.16312 10.34675,-12.87658 a 1.9471209,1.9471209 0 0 1 2.97042,-0.0853 q 15.2785,16.89873 24.78671,37.69172 z"
         id="path91"
         style="stroke-width:1.42126" />
      <path
         fill="#131f33"
         d="m 436.81934,162.25552 1.53496,4.00794 q -4.66172,9.55084 -7.83112,13.43088 -7.53266,9.22395 -15.10795,20.45187 a 5.2017976,5.2302227 70.2 0 0 -0.668,1.40705 q -1.54917,5.07389 -1.52074,6.04034 0.75326,26.56328 0.21319,51.52053 a 2.529836,2.4729857 32.1 0 0 0.29847,1.23649 l 0.28424,0.54009 q -0.52586,2.03239 -0.54007,4.1927 -0.35532,41.65702 -0.36953,60.75869 0,6.42409 0.51165,12.13754 a 0.54007734,0.54007734 0 0 0 1.02331,0.19897 l 11.21371,-22.28529 q 16.03176,-21.41833 28.19772,-35.21873 19.08746,-21.63152 50.66778,-53.9651 c 1.94713,-2.00397 4.37747,-3.75211 6.97837,-4.56223 a 1.1938552,1.1938552 0 0 1 1.39283,1.71972 c -4.07901,7.33368 -10.64521,13.65827 -16.515,20.52294 -3.04148,3.56735 -6.19667,6.01191 -8.89706,9.40872 q -3.01307,3.79474 -6.32459,7.40473 -25.26993,27.57238 -49.03334,56.97817 -6.70833,10.61678 -9.15289,16.89874 -4.13585,10.63099 -8.4849,24.5593 c -1.47811,4.747 -1.42126,8.81179 -1.46389,13.70091 q -0.19897,21.74522 0.27004,48.01003 a 0.41216429,0.41216429 0 0 0 0.75327,0.2274 l 10.64521,-16.1881 c 26.7054,-28.93678 56.15382,-55.05947 86.85295,-81.94964 q 5.13074,-4.47695 11.78222,-8.04431 a 1.4781065,1.4781065 0 0 1 2.1461,1.06595 q 0.32689,2.10346 -1.52075,3.79476 -13.24611,12.18016 -34.33755,30.65648 -14.99425,13.14662 -45.18173,43.29147 -7.56108,7.53266 -14.39732,16.21654 -10.36096,12.08067 -14.43996,28.65251 l -12.8908,0.0426 c -0.89539,-14.99425 -6.18246,-29.23524 -13.30296,-41.67123 q -3.22625,-5.61396 -9.29501,-11.66851 -3.24046,-3.24046 -6.77939,-3.46786 -8.0301,-0.54008 -13.70092,-1.27913 c -23.6497,-3.12676 -47.25676,-17.58093 -59.25216,-38.67237 q -10.48887,-18.46212 -13.14662,-39.21246 a 1.3217682,1.3359808 81.2 0 1 1.08016,-1.46389 l 5.72766,-1.05174 a 2.7856621,3.0557008 64.9 0 1 0.42637,-0.0284 q 14.78107,-0.14212 16.78504,0.19898 20.26711,3.42522 32.10618,9.15289 27.64343,13.40244 42.36764,43.30567 c 2.27401,4.61909 3.60999,10.34674 5.34392,16.515 2.04661,7.21998 7.85955,17.46723 10.11935,23.72076 q 2.7288,7.58951 3.68105,16.07441 a 0.28425124,0.28425124 0 0 0 0.55429,0.0284 l 0.83854,-3.68105 a 6.8930924,6.9925803 50.6 0 0 0.15634,-1.46389 c -0.0711,-17.35354 0.88118,-30.62807 -1.10858,-44.01631 q -3.24046,-21.77364 -14.38311,-42.0976 -1.17965,-2.1461 -2.06082,-4.03637 -10.26148,-13.54457 -21.4894,-25.93792 -24.4456,-26.98966 -54.8747,-59.05319 -2.67195,-2.81409 -3.69526,-6.59464 a 0.81011602,0.81011602 0 0 1 0.73905,-1.02331 q 2.40192,-0.14212 3.46787,0.88119 38.55867,37.12321 72.49827,77.33055 2.64354,3.14097 5.23022,6.73674 2.52984,3.53893 5.07389,7.13471 6.40986,10.55994 7.74585,16.57185 0.88117,3.97952 2.57247,7.34789 a 0.34110148,0.34110148 0 0 0 0.63957,-0.15633 L 406.7882,261.715 q 0.17055,-24.84355 0.31268,-49.2181 0.0284,-5.2018 -1.6913,-10.07671 a 6.8646673,6.6088412 18.7 0 0 -0.86696,-1.67708 q -9.08183,-12.59233 -19.32909,-28.43933 -1.64866,-2.55827 -1.60602,-5.92664 a 1.1085798,1.0943672 21 0 1 1.83342,-0.81012 q 3.38259,2.98464 5.59975,5.98349 4.12164,5.55711 15.25008,21.4894 a 0.51165222,0.51165222 0 0 0 0.93803,-0.28426 q 0.14213,-15.02268 -0.15634,-38.16073 -0.0995,-8.39962 0.85275,-15.44906 a 2.2455847,2.2455847 0 0 1 3.97952,-1.09436 q 1.06595,1.32177 1.13701,4.07901 0.42637,17.26826 -0.0995,49.21809 a 0.45480197,0.45480197 0 0 0 0.81012,0.28426 z M 306.40488,316.06387 q 1.64866,3.59577 5.03124,6.04033 23.69235,17.23984 47.96739,38.75766 8.49912,7.53266 20.48031,18.20629 a 0.65377784,0.65377784 0 0 0 1.00909,-0.78169 q -2.04661,-4.02215 -5.2018,-7.09207 -7.61793,-7.37631 -20.55136,-18.73216 c -8.98234,-7.85953 -18.47633,-14.73842 -27.74292,-22.48426 q -2.40192,-2.00397 -20.66507,-14.19836 a 0.22740099,0.22740099 0 0 0 -0.32688,0.28426 z"
         id="path92"
         style="stroke-width:1.42126" />
      <path
         fill="#5daa93"
         d="m 414.02239,260.89071 -0.28424,-0.54009 a 2.529836,2.4729857 32.1 0 1 -0.29847,-1.23649 q 0.54007,-24.95725 -0.21319,-51.52053 -0.0284,-0.96645 1.52074,-6.04034 a 5.2017976,5.2302227 70.2 0 1 0.668,-1.40705 q 7.57529,-11.22792 15.10795,-20.45187 3.1694,-3.88004 7.83112,-13.43088 1.73393,5.65661 3.56735,11.7538 2.20295,7.3621 2.6009,11.96697 c 1.20807,14.04201 0.49744,29.27788 -5.62817,41.75651 q -3.92267,8.01589 -9.84931,15.36378 -5.96928,7.41896 -13.31717,12.36493 -0.90961,0.61114 -1.70551,1.42126 z"
         id="path93"
         style="stroke-width:1.42126" />
      <path
         fill="#fa752a"
         d="m 396.01508,313.77564 q -2.54405,-3.59578 -5.07389,-7.13471 -2.58668,-3.59577 -5.23022,-6.73674 -33.9396,-40.20734 -72.49827,-77.33055 -1.06595,-1.02331 -3.46787,-0.88119 a 0.81011602,0.81011602 0 0 0 -0.73905,1.02331 q 1.02331,3.78055 3.69526,6.59464 30.4291,32.06353 54.8747,59.05319 11.22792,12.39335 21.4894,25.93792 -9.20974,-1.67709 -17.50988,-3.19782 -4.93177,-0.90961 -16.48657,-5.25866 -9.09604,-3.42522 -15.37799,-8.17222 c -17.43882,-13.14662 -30.40067,-31.53767 -35.03397,-51.96112 q -3.52471,-15.60539 -5.5429,-31.76508 -0.35531,-2.88515 2.24559,-3.83739 a 2.7288118,2.6293239 36 0 1 1.12279,-0.15634 q 19.88338,1.69129 39.46829,10.01986 c 14.51102,6.16825 25.51155,16.42972 35.4319,28.65252 q 3.75213,4.64751 7.24842,11.10001 13.51615,25.02833 11.38426,54.05037 z"
         id="path94-9"
         style="stroke-width:1.42126" />
      <path
         fill="#fa752a"
         d="m 432.32817,318.18154 q 23.76341,-29.40579 49.03334,-56.97817 3.31152,-3.60999 6.32459,-7.40473 c 2.70039,-3.39681 5.85558,-5.84137 8.89706,-9.40872 5.86979,-6.86467 12.43599,-13.18926 16.515,-20.52294 a 1.1938552,1.1938552 0 0 0 -1.39283,-1.71972 c -2.6009,0.81012 -5.03124,2.55826 -6.97837,4.56223 q -31.58032,32.33358 -50.66778,53.9651 -12.16596,13.8004 -28.19772,35.21873 -2.16031,-17.72307 2.74302,-34.0533 11.88171,-39.49671 48.12373,-58.75473 9.30923,-4.94597 15.74752,-6.62306 12.97608,-3.3968 25.42628,-6.08297 a 1.7055073,1.7055073 0 0 1 2.01818,1.30755 c 0.48323,2.27401 1.15122,6.06877 0.88118,9.69297 -2.43035,33.0442 -15.54854,63.00429 -43.12091,82.56078 -5.81294,4.12164 -11.04317,6.50935 -18.06417,9.13866 q -12.86237,4.80386 -27.28812,5.10232 z"
         id="path95"
         style="stroke-width:1.42126" />
      <path
         fill="#5daa93"
         d="m 430.23893,410.42107 q 6.83624,-8.68388 14.39732,-16.21654 30.18748,-30.14485 45.18173,-43.29147 21.09144,-18.47632 34.33755,-30.65648 1.84764,-1.6913 1.52075,-3.79476 a 1.4781065,1.4781065 0 0 0 -2.1461,-1.06595 q -6.65148,3.56736 -11.78222,8.04431 c -30.69913,26.89017 -60.14755,53.01286 -86.85295,81.94964 q -2.31665,-30.89812 15.9607,-56.19647 4.46275,-6.18246 9.92036,-10.70206 26.64856,-22.10053 61.28457,-25.341 6.4525,-0.61114 14.22678,0.21319 a 2.0181838,2.0181838 0 0 1 1.74814,2.44456 c -1.57759,7.21998 -1.94712,18.44791 -4.15006,25.7958 q -7.37633,24.47403 -20.66507,39.08454 -21.73101,23.91975 -55.898,28.12667 -12.57812,1.54916 -17.0835,1.60602 z"
         id="path96"
         style="stroke-width:1.42126" />
      <path
         fill="#8c9fa4"
         d="m 306.73176,315.77961 q 18.26315,12.19439 20.66507,14.19836 c 9.26659,7.74584 18.76058,14.62473 27.74292,22.48426 q 12.93343,11.35585 20.55136,18.73216 3.15519,3.06992 5.2018,7.09207 a 0.65377784,0.65377784 0 0 1 -1.00909,0.78169 q -11.98119,-10.67363 -20.48031,-18.20629 -24.27504,-21.51782 -47.96739,-38.75766 -3.38258,-2.44456 -5.03124,-6.04033 a 0.22740099,0.22740099 0 0 1 0.32688,-0.28426 z"
         id="path97"
         style="stroke-width:1.42126" />
      <path
         fill="#fa752a"
         d="m 384.9577,422.71493 q -19.78388,-17.50988 -47.93897,-24.90041 a 2.3166476,2.3308601 22.6 0 0 -2.60089,1.08016 l -0.0284,0.0568 a 1.6060195,1.6060195 0 0 0 0.72485,2.274 q 17.21141,7.70322 26.73382,11.5406 10.04828,4.03637 18.41948,9.9488 -1.54917,-0.17055 -4.96019,0.21319 -16.23074,1.83341 -32.8168,-5.52869 c -4.9886,-2.21716 -11.4269,-6.96416 -14.31205,-10.68785 q -4.06479,-5.23022 -7.21998,-8.86863 a 2.302435,2.2455847 15.2 0 1 -0.41216,-0.69642 l -2.08925,-5.82715 a 1.2222803,1.2222803 0 0 1 0.99488,-1.62024 l 11.0858,-1.54916 a 2.4587731,1.8334205 34.9 0 1 0.44058,-0.0142 q 13.08977,0.72483 17.93626,1.80499 12.15174,2.68618 23.93395,12.46441 a 8.6128124,8.8260007 2.3 0 1 1.64866,1.83343 q 2.17452,3.26889 5.55711,7.03522 2.34507,2.61511 4.90334,11.44111 z"
         id="path98"
         style="stroke-width:1.42126" />
      <path
         fill="#3e1a0a"
         d="m 384.9577,422.71493 1.32177,1.74815 a 1.0233044,1.0233044 0 0 1 -1.53495,1.33597 q -2.08925,-2.08924 -4.47696,-3.08412 -8.3712,-5.91242 -18.41948,-9.9488 -9.52241,-3.83738 -26.73382,-11.5406 a 1.6060195,1.6060195 0 0 1 -0.72485,-2.274 l 0.0284,-0.0568 a 2.3166476,2.3308601 22.6 0 1 2.60089,-1.08016 q 28.15509,7.39054 47.93897,24.90041 z"
         id="path99"
         style="stroke-width:1.42126" />
      <path
         fill="#fa752a"
         d="m 402.90817,439.11622 12.8908,-0.0426 q 0.0142,0.82433 0.41216,1.25072 0.48322,0.51165 1.2507,0.36953 c 3.9511,-0.69642 7.5753,0.0142 12.36493,0.0142 q 1.87606,0 57.77407,0.0142 2.91357,0 7.5895,-0.19898 3.29732,-0.14212 9.73561,0.31268 a 0.8527537,0.8527537 0 0 1 0.7959,0.85275 v 21.56046 a 2.5014108,2.4871982 87.3 0 1 -2.25979,2.48719 q -5.5429,0.51166 -13.58722,0.24162 -0.54007,-0.0142 -0.82433,0.22739 -0.31267,0.25583 -0.44059,0.72485 l -0.38374,-0.2274 a 1.6912948,1.7055073 59.7 0 0 -0.82432,-0.21319 l -158.72589,0.32689 q 0.0568,-0.36953 -0.31267,-0.66799 a 0.61114015,0.62535272 65.7 0 0 -0.39795,-0.14213 h -12.19438 a 2.9562128,2.9562128 0 0 1 -2.95621,-2.95622 v -19.40014 a 2.9135751,2.9135751 0 0 1 2.91357,-2.91357 c 6.82203,-0.0142 11.21371,-1.20806 17.23983,-0.38374 6.06876,0.82433 12.32229,0 18.41948,-0.32689 q 4.00794,-0.19898 9.29502,0.29847 5.69924,0.54007 15.23587,-0.668 1.50653,-0.18476 9.93458,1.03753 3.25467,0.46901 8.66965,-0.73906 a 5.1449473,5.2870729 44.2 0 1 2.0182,-0.0568 q 5.30128,0.89539 6.36722,-0.78169 z"
         id="path101"
         style="stroke-width:1.42126" />
      <path
         fill="#131f33"
         d="m 488.60991,466.93021 q -0.19897,3.95109 -1.00908,7.90218 c -0.54009,2.68618 -0.39795,6.53778 -1.93291,9.39451 l -154.22051,-0.12792 q -1.0233,-2.34507 -1.29334,-5.14495 -0.32689,-3.2831 -0.73906,-5.24443 -0.71063,-3.42522 -0.73905,-6.89309 l 158.72589,-0.32689 a 1.6912948,1.7055073 59.7 0 1 0.82432,0.21319 z"
         id="path103"
         style="stroke-width:1.42126" />
      <path
         fill="#fa752a"
         d="m 485.66792,484.2269 c -1.32177,3.59578 -1.50654,8.30013 -1.97555,11.00052 q -6.86466,39.29774 -12.39335,80.58522 c -0.4548,3.3826 -9.84931,4.81806 -12.59234,4.94598 q -12.3365,0.5685 -24.43139,-0.0995 c -24.72985,-1.37861 -46.63141,-0.81011 -74.70122,-0.86696 q -7.51845,-0.0142 -8.51333,-0.32689 c -5.74187,-1.77657 -7.021,-10.68784 -6.94994,-15.93227 a 2.2171596,2.5156235 37.3 0 0 -0.0426,-0.58272 L 331.44742,484.099 Z"
         id="path104"
         style="stroke-width:1.42126" />
      <circle
         fill="#131f33"
         cx="498.14655"
         cy="135.83438"
         r="15.974918"
         id="circle91"
         style="stroke-width:1.42126" />
    </g>
  </g>
</svg>
